<?xml version="1.0" encoding="UTF-8"?>
<svg width="298px" height="92px" viewBox="0 0 298 92" version="1.1" xmlns="http://www.w3.org/2000/svg" xmlns:xlink="http://www.w3.org/1999/xlink">
    <!-- Generator: Sketch 42 (36781) - http://www.bohemiancoding.com/sketch -->
    <title>SVG/FancyHeader</title>
    <desc>Created with Sketch.</desc>
    <defs></defs>
    <g id="Symbols" stroke="none" stroke-width="1" fill="none" fill-rule="evenodd">
        <g id="SVG/FancyHeader">
            <g>
                <path d="M228.66895,37.2592775 L235.580332,9.46949738 C236.935316,4.41961257 233.761953,0.288764398 228.529112,0.288764398 L22.3372217,0.288764398 C17.1043803,0.288764398 11.7153058,4.41961257 10.3608042,9.46949738 L0.602027508,45.8504398 C-0.75247411,50.8983979 2.42088835,55.0302094 7.65372977,55.0302094 L81.6763511,55.0302094 L73.2957039,82.8204712 C71.9416845,87.868911 75.1145647,91.9997592 80.3474061,91.9997592 L275.598163,91.9997592 C280.830523,91.9997592 286.220079,87.8684293 287.574581,82.8204712 L297.333358,46.4395288 C298.687859,41.3901257 295.514497,37.2592775 290.281655,37.2592775 L228.66895,37.2592775 Z" id="Fill-1" fill="#FFFFFF"></path>
                <path d="M228.66895,37.2592775 L235.580332,9.46949738 C236.935316,4.41961257 233.761953,0.288764398 228.529112,0.288764398 L22.3372217,0.288764398 C17.1043803,0.288764398 11.7153058,4.41961257 10.3608042,9.46949738 L0.602027508,45.8504398 C-0.75247411,50.8983979 2.42088835,55.0302094 7.65372977,55.0302094 L81.6763511,55.0302094 L73.2957039,82.8204712 C71.9416845,87.868911 75.1145647,91.9997592 80.3474061,91.9997592 L275.598163,91.9997592 C280.830523,91.9997592 286.220079,87.8684293 287.574581,82.8204712 L297.333358,46.4395288 C298.687859,41.3901257 295.514497,37.2592775 290.281655,37.2592775 L228.66895,37.2592775 Z" id="Stroke-3" stroke="#77BC1F" stroke-width="4"></path>
                <path d="M23.0195838,38.2209906 C23.4940693,38.2209906 23.863435,38.0846764 24.1267165,37.8115665 C24.3895159,37.5394199 24.5848071,37.1661215 24.7121081,36.6916712 L29.1772861,20.045933 C29.2915676,19.6191686 29.2920498,19.2632105 29.1782505,18.9785403 C29.0649333,18.6938702 28.7703087,18.5522576 28.2958233,18.5522576 C27.8208557,18.5522576 27.444257,18.6938702 27.1665094,18.9785403 C26.8882796,19.2632105 26.6925061,19.6191686 26.5777424,20.045933 L22.1130466,36.6916712 C21.9852634,37.1661215 21.9857456,37.5394199 22.1144932,37.8115665 C22.2432408,38.0846764 22.5446162,38.2209906 23.0195838,38.2209906 M22.2278104,41.1731791 C21.3256129,41.1731791 20.6080984,41.060467 20.0757489,40.8350429 C19.5419528,40.6101005 19.1504058,40.3018283 18.8991793,39.9102262 C18.648435,39.5191058 18.5245094,39.051399 18.528367,38.5051791 C18.5322246,37.9604042 18.6199851,37.3674618 18.7916485,36.7268335 L23.2664706,20.045933 C23.438134,19.4053047 23.6681437,18.8133257 23.9569819,18.2671058 C24.2458201,17.7218492 24.6219366,17.2478806 25.0862958,16.8447183 C25.550655,16.441556 26.1090434,16.1275037 26.7638718,15.9020796 C27.4167715,15.6771372 28.1950434,15.5639435 29.0972408,15.5639435 C29.9994382,15.5639435 30.7169528,15.6771372 31.2497845,15.9020796 C31.7826162,16.1275037 32.1674123,16.441556 32.4036906,16.8447183 C32.6390045,17.2478806 32.7556971,17.7218492 32.7518395,18.2671058 C32.7474997,18.8133257 32.6602214,19.4053047 32.4885579,20.045933 L28.0137359,36.7268335 C27.8420725,37.3674618 27.6115806,37.9604042 27.3232246,38.5051791 C27.0343864,39.051399 26.6655029,39.5191058 26.2165741,39.9102262 C25.7671631,40.3018283 25.2155256,40.6101005 24.5616615,40.8350429 C23.9082796,41.060467 23.1300078,41.1731791 22.2278104,41.1731791" id="Fill-5" fill="#000000"></path>
                <path d="M33.8530893,36.7270262 C33.7257883,37.2014764 33.7281994,37.5689948 33.8603223,37.8295812 C33.9914809,38.0906492 34.2947851,38.2211832 34.7697528,38.2211832 C35.2442382,38.2211832 35.6116751,38.0906492 35.8720634,37.8295812 C36.1314874,37.5689948 36.325332,37.2014764 36.452633,36.7270262 L42.0336233,15.9200942 L45.3453773,15.9200942 L39.7542608,36.7626702 C39.588866,37.3792147 39.3559631,37.9605969 39.0550699,38.5053717 C38.7541767,39.0511099 38.3742026,39.5188168 37.9132188,39.9104188 C37.4517528,40.3015393 36.8938466,40.6102932 36.2404647,40.8352356 C35.5866006,41.060178 34.8324388,41.1728901 33.9779793,41.1728901 C33.0752997,41.1728901 32.3563385,41.0664398 31.8206136,40.8530576 C31.2839243,40.6396754 30.8904485,40.3371832 30.639222,39.9460628 C30.3884777,39.5549424 30.2650343,39.0867539 30.2684097,38.5410157 C30.2727495,37.9957592 30.36051,37.4028168 30.5321735,36.7626702 L36.12329,15.9200942 L39.4345618,15.9200942 L33.8530893,36.7270262 Z" id="Fill-7" fill="#000000"></path>
                <path d="M49.9213168,27.2661508 C50.3721744,27.2661508 50.7092327,27.1592188 50.9329738,26.9458366 C51.1562327,26.7324545 51.3225919,26.4246639 51.4306049,26.0210199 L52.9572521,20.3305068 C53.0715337,19.9032607 53.0667117,19.5892084 52.9427861,19.3878681 C52.8188605,19.1865277 52.5309867,19.0853759 52.0806113,19.0853759 L50.6918735,19.0853759 L48.4973783,27.2661508 L49.9213168,27.2661508 Z M48.2292748,15.9198052 L53.214265,15.9198052 C54.0687246,15.9198052 54.7418767,16.0209571 55.2342036,16.2222974 C55.725566,16.4241194 56.0746793,16.7145696 56.2820256,17.0936482 C56.4888896,17.4732084 56.58099,17.9235749 56.5602553,18.4452293 C56.5390385,18.9668838 56.4425984,19.5477843 56.270935,20.1879309 L54.677744,26.1279518 C54.3913168,27.1948628 54.0031453,28.0662136 53.5132294,28.7420042 C53.0233136,29.4177948 52.2922974,29.8864649 51.3206631,30.1470513 C51.4605013,31.9253969 51.5829803,33.7037424 51.6876178,35.482088 C51.7917731,37.2609152 51.9026793,39.0387791 52.0188896,40.8171246 L48.4226372,40.8171246 C48.3951518,39.0628628 48.3536825,37.3138995 48.2991939,35.5711979 C48.2437408,33.8280147 48.2061291,32.0679728 48.1844301,30.2891455 L47.6863168,30.2891455 L44.8620676,40.8171246 L41.5507958,40.8171246 L48.2292748,15.9198052 Z" id="Fill-9" fill="#000000"></path>
                <path d="M62.8364343,36.7270262 C62.7091333,37.2014764 62.7115443,37.5689948 62.8436673,37.8295812 C62.9748259,38.0906492 63.2781301,38.2211832 63.7530977,38.2211832 C64.2275832,38.2211832 64.5950201,38.0906492 64.8554084,37.8295812 C65.1148324,37.5689948 65.308677,37.2014764 65.435978,36.7270262 L71.0169683,15.9200942 L74.3287223,15.9200942 L68.7376058,36.7626702 C68.572211,37.3792147 68.3393081,37.9605969 68.0384149,38.5053717 C67.7375217,39.0511099 67.3575476,39.5188168 66.8965638,39.9104188 C66.4350977,40.3015393 65.8771916,40.6102932 65.2238097,40.8352356 C64.5699456,41.060178 63.8157838,41.1728901 62.9613243,41.1728901 C62.0586447,41.1728901 61.3396835,41.0664398 60.8039586,40.8530576 C60.2672693,40.6396754 59.8737935,40.3371832 59.622567,39.9460628 C59.3718227,39.5549424 59.2483793,39.0867539 59.2517547,38.5410157 C59.2560945,37.9957592 59.343855,37.4028168 59.5155184,36.7626702 L65.106635,15.9200942 L68.4179068,15.9200942 L62.8364343,36.7270262 Z" id="Fill-11" fill="#000000"></path>
                <path d="M79.9293864,33.1346911 C80.2109916,31.6410157 80.550943,30.0880942 80.9477942,28.475445 C81.3446453,26.8627958 81.7434252,25.3098743 82.144134,23.8157173 L84.2619592,15.9200942 L87.2530498,15.9200942 L80.5745709,40.8174136 L77.4412311,40.8174136 L77.8477262,23.6379791 C77.5482796,25.108534 77.2092926,26.6378534 76.830765,28.2264188 C76.4522375,29.8149843 76.0524932,31.3919895 75.6329786,32.9569529 L73.5243152,40.8174136 L70.5337068,40.8174136 L77.2121858,15.9200942 L80.3812084,15.9200942 L79.9293864,33.1346911 Z" id="Fill-13" fill="#000000"></path>
                <polygon id="Fill-15" fill="#000000" points="90.2802091 15.9199979 93.5914809 15.9199979 86.9130019 40.8173173 83.6017301 40.8173173"></polygon>
                <path d="M94.9432822,38.2209906 C95.4177676,38.2209906 95.7871333,38.0846764 96.0504149,37.8115665 C96.3132142,37.5394199 96.5085055,37.1661215 96.6358065,36.6916712 L101.100984,20.045933 C101.215266,19.6191686 101.215748,19.2632105 101.101949,18.9785403 C100.988632,18.6938702 100.694007,18.5522576 100.219522,18.5522576 C99.744554,18.5522576 99.3679553,18.6938702 99.0902078,18.9785403 C98.811978,19.2632105 98.6162045,19.6191686 98.5014408,20.045933 L94.036745,36.6916712 C93.9089618,37.1661215 93.909444,37.5394199 94.0381916,37.8115665 C94.1669392,38.0846764 94.4683146,38.2209906 94.9432822,38.2209906 L94.9432822,38.2209906 Z M95.9332401,44.0897236 C94.6274408,44.0897236 93.7310298,43.8459958 93.2444893,43.360467 C92.7569845,42.8744565 92.6301657,42.109556 92.8630686,41.0662471 C91.6320104,40.8759853 90.8913502,40.3851581 90.6415702,39.5903937 C90.3917903,38.796111 90.4163825,37.841912 90.7153469,36.7268335 L95.1901689,20.045933 C95.3618324,19.4053047 95.5937709,18.8070639 95.8855023,18.2497654 C96.1777159,17.6929487 96.5538324,17.2180168 97.0148162,16.8264147 C97.4758,16.4352942 98.0327417,16.1275037 98.6875702,15.9020796 C99.3404699,15.6771372 100.118742,15.5639435 101.020939,15.5639435 C101.923137,15.5639435 102.640651,15.6771372 103.173483,15.9020796 C103.706315,16.1275037 104.093039,16.4352942 104.332211,16.8264147 C104.5709,17.2180168 104.687593,17.6929487 104.68036,18.2497654 C104.673127,18.8070639 104.58392,19.4053047 104.412256,20.045933 L99.9374343,36.7268335 C99.6326835,37.8650325 99.1369812,38.8254932 98.4522563,39.6082157 C97.7675314,40.3904565 96.7592498,40.8759853 95.4264472,41.0662471 C95.3005929,41.8012838 95.6525994,42.1688021 96.4839133,42.1688021 L97.5876706,42.1688021 L96.5740848,44.0897236 L95.9332401,44.0897236 Z" id="Fill-17" fill="#000000"></path>
                <path d="M105.77727,36.7270262 C105.649969,37.2014764 105.65238,37.5689948 105.784503,37.8295812 C105.915661,38.0906492 106.218966,38.2211832 106.693933,38.2211832 C107.168419,38.2211832 107.535856,38.0906492 107.796244,37.8295812 C108.055668,37.5689948 108.249513,37.2014764 108.376814,36.7270262 L113.957804,15.9200942 L117.269558,15.9200942 L111.678441,36.7626702 C111.513047,37.3792147 111.280144,37.9605969 110.97925,38.5053717 C110.678357,39.0511099 110.298383,39.5188168 109.837399,39.9104188 C109.375933,40.3015393 108.818027,40.6102932 108.164645,40.8352356 C107.510781,41.060178 106.756619,41.1728901 105.90216,41.1728901 C104.99948,41.1728901 104.280519,41.0664398 103.744794,40.8530576 C103.208105,40.6396754 102.814629,40.3371832 102.563403,39.9460628 C102.312658,39.5549424 102.189215,39.0867539 102.19259,38.5410157 C102.19693,37.9957592 102.284691,37.4028168 102.456354,36.7626702 L108.047471,15.9200942 L111.358742,15.9200942 L105.77727,36.7270262 Z" id="Fill-19" fill="#000000"></path>
                <polygon id="Fill-21" fill="#000000" points="117.590221 37.6873424 121.863001 37.6873424 121.02349 40.8172691 113.439438 40.8172691 120.117917 15.9199497 127.701969 15.9199497 126.852814 19.0855204 122.580034 19.0855204 120.538396 26.696955 124.241215 26.696955 123.420992 29.7555937 119.717691 29.7555937"></polygon>
                <path d="M136.728717,27.2661508 C137.179574,27.2661508 137.516633,27.1592188 137.740374,26.9458366 C137.963633,26.7324545 138.129992,26.4246639 138.238005,26.0210199 L139.764652,20.3305068 C139.878934,19.9032607 139.874112,19.5892084 139.750186,19.3878681 C139.626261,19.1865277 139.338387,19.0853759 138.888011,19.0853759 L137.499273,19.0853759 L135.304778,27.2661508 L136.728717,27.2661508 Z M135.036675,15.9198052 L139.985982,15.9198052 C140.840442,15.9198052 141.513112,16.0209571 142.005439,16.2222974 C142.497283,16.4241194 142.853147,16.7145696 143.071584,17.0936482 C143.290503,17.4732084 143.38839,17.9235749 143.367655,18.4452293 C143.346439,18.9668838 143.249998,19.5477843 143.078335,20.1879309 L141.494306,26.0923079 C141.131691,27.443889 140.531833,28.4876796 139.693769,29.2222346 C138.855704,29.9572712 137.64104,30.3247895 136.050743,30.3247895 L134.484073,30.3247895 L131.669468,40.8171246 L128.358196,40.8171246 L135.036675,15.9198052 Z" id="Fill-23" fill="#000000"></path>
                <path d="M148.72558,19.9744524 C147.999385,22.0615518 147.249081,24.1717717 146.475149,26.3055937 C145.701217,28.4398974 144.962968,30.550599 144.260884,32.6367351 L146.397033,32.6367351 C146.743253,30.550599 147.115029,28.4341173 147.512845,26.2877717 C147.910661,24.1419079 148.314262,22.0374681 148.72558,19.9744524 L148.72558,19.9744524 Z M148.33355,40.8170283 L144.986114,40.8170283 L145.897473,35.6953738 L143.119997,35.6953738 L141.282813,40.8170283 L137.935858,40.8170283 L147.712476,15.9201906 L151.91389,15.9201906 L148.33355,40.8170283 Z" id="Fill-25" fill="#000000"></path>
                <polygon id="Fill-27" fill="#000000" points="154.100429 40.8172691 150.789157 40.8172691 156.618963 19.0855204 153.841487 19.0855204 154.690643 15.9199497 163.592549 15.9199497 162.743394 19.0855204 159.930235 19.0855204"></polygon>
                <polygon id="Fill-29" fill="#000000" points="162.844559 37.6873424 167.117339 37.6873424 166.277828 40.8172691 158.693776 40.8172691 165.372255 15.9199497 172.956789 15.9199497 172.107634 19.0855204 167.834854 19.0855204 165.792734 26.696955 169.496035 26.696955 168.675329 29.7555937 164.972028 29.7555937"></polygon>
                <path d="M178.201975,33.1346911 C178.483098,31.6410157 178.823049,30.0880942 179.220383,28.475445 C179.617234,26.8627958 180.016014,25.3098743 180.416722,23.8157173 L182.534548,15.9200942 L185.525638,15.9200942 L178.847159,40.8174136 L175.713819,40.8174136 L176.120315,23.6379791 C175.820386,25.108534 175.481399,26.6378534 175.103353,28.2264188 C174.724344,29.8149843 174.325082,31.3919895 173.905567,32.9569529 L171.796904,40.8174136 L168.806295,40.8174136 L175.484774,15.9200942 L178.653797,15.9200942 L178.201975,33.1346911 Z" id="Fill-31" fill="#000000"></path>
                <polygon id="Fill-33" fill="#000000" points="186.715854 40.8172691 183.404582 40.8172691 189.234388 19.0855204 186.456912 19.0855204 187.306068 15.9199497 196.207974 15.9199497 195.358818 19.0855204 192.54566 19.0855204"></polygon>
                <polygon id="Fill-35" fill="#000000" points="195.495763 37.6873424 199.768543 37.6873424 198.929032 40.8172691 191.34498 40.8172691 198.023459 15.9199497 205.607993 15.9199497 204.758838 19.0855204 200.486058 19.0855204 198.443938 26.696955 202.147239 26.696955 201.326534 29.7555937 197.623233 29.7555937"></polygon>
                <path d="M207.031835,37.6873424 C207.482693,37.6873424 207.818305,37.5871539 208.03867,37.3853319 C208.258554,37.1839916 208.422984,36.8814995 208.530997,36.4778555 L212.862606,20.3301696 C212.976887,19.9034052 212.972065,19.5893529 212.848622,19.3875309 C212.724696,19.1866723 212.43634,19.0855204 211.985965,19.0855204 L210.562026,19.0855204 L205.572214,37.6873424 L207.031835,37.6873424 Z M208.09991,15.9199497 L212.942169,15.9199497 C213.820256,15.9199497 214.517036,16.0211016 215.032991,16.2224419 C215.548945,16.4237822 215.921686,16.7142325 216.152178,17.0937927 C216.38267,17.4733529 216.489719,17.9357613 216.474771,18.4805361 C216.458376,19.026756 216.361936,19.6312586 216.183521,20.2945257 L211.851913,36.4426932 C211.66723,37.1305257 211.436738,37.7470702 211.160919,38.291845 C210.883172,38.8375832 210.533576,39.3004733 210.112133,39.6790702 C209.689243,40.0586304 209.173288,40.3433005 208.565233,40.532599 C207.956214,40.7228607 207.212661,40.8172691 206.335055,40.8172691 L201.420949,40.8172691 L208.09991,15.9199497 Z" id="Fill-37" fill="#000000"></path>
                <path d="M98.5352913,57.3563162 C97.8095793,59.4434157 97.0587929,61.5531539 96.285343,63.6874576 C95.5109288,65.8212796 94.7726796,67.9319812 94.0705955,70.018599 L96.2067443,70.018599 C96.5529644,67.9319812 96.9247411,65.8159812 97.3225566,63.6696356 C97.7203722,61.5237717 98.1239741,59.4193319 98.5352913,57.3563162 L98.5352913,57.3563162 Z M98.1432621,78.1988921 L94.7958252,78.1988921 L95.7071845,73.0772377 L92.9297087,73.0772377 L91.0925243,78.1988921 L87.7455696,78.1988921 L97.5221877,53.3015728 L101.723602,53.3015728 L98.1432621,78.1988921 Z" id="Fill-39" fill="#000000"></path>
                <path d="M108.328835,64.6477257 C108.779692,64.6477257 109.117233,64.5407937 109.340492,64.3274115 C109.56375,64.1140293 109.73011,63.8062387 109.838123,63.4030764 L111.36477,57.7120817 C111.479051,57.2848356 111.474229,56.9707832 111.350786,56.7694429 C111.226378,56.5681026 110.938505,56.4669508 110.488129,56.4669508 L109.099391,56.4669508 L106.904896,64.6477257 L108.328835,64.6477257 Z M106.637275,53.3013801 L111.622265,53.3013801 C112.476242,53.3013801 113.149394,53.4025319 113.641721,53.6038723 C114.133084,53.8056942 114.482197,54.0961445 114.689543,54.475223 C114.896407,54.8547832 114.988508,55.3051497 114.967773,55.8268042 C114.946556,56.3489403 114.850116,56.9293592 114.678453,57.5699874 L113.085262,63.5095267 C112.798835,64.5764377 112.410663,65.4477885 111.921229,66.1235791 C111.430831,66.7993696 110.699815,67.2680398 109.728181,67.5286262 C109.868019,69.3069717 109.990498,71.0853173 110.095136,72.8641445 C110.199773,74.6424901 110.310197,76.4203539 110.426407,78.1986995 L106.830155,78.1986995 C106.80267,76.4444377 106.7612,74.6954743 106.706712,72.9527728 C106.651259,71.2100712 106.613647,69.4495476 106.591948,67.6707204 L106.093835,67.6707204 L103.269585,78.1986995 L99.9583136,78.1986995 L106.637275,53.3013801 Z" id="Fill-41" fill="#000000"></path>
                <path d="M119.409323,70.7298408 L122.649229,70.7298408 L121.742692,74.1087937 C121.571029,74.7489403 121.341019,75.3418827 121.052181,75.8871393 C120.763343,76.4328775 120.394459,76.9005843 119.94553,77.2921864 C119.496119,77.6833068 118.950268,77.9920607 118.308941,78.2165215 C117.66665,78.4419455 116.90622,78.5546576 116.028132,78.5546576 C115.125935,78.5546576 114.40842,78.4419455 113.875589,78.2165215 C113.342275,77.9920607 112.950246,77.6833068 112.699501,77.2921864 C112.448275,76.9005843 112.324831,76.4328775 112.328207,75.8871393 C112.332547,75.3418827 112.420307,74.7489403 112.591971,74.1087937 L117.066793,57.4274115 C117.238456,56.7872649 117.470394,56.1890241 117.761644,55.631244 C118.053857,55.0744272 118.430456,54.599977 118.89144,54.2083749 C119.352424,53.8172545 119.909848,53.5094639 120.564194,53.2835581 C121.217094,53.0586157 121.995365,52.9459037 122.897563,52.9459037 C123.77565,52.9459037 124.475323,53.0586157 124.997064,53.2835581 C125.517359,53.5094639 125.897815,53.8172545 126.137469,54.2083749 C126.376158,54.599977 126.492369,55.0744272 126.485618,55.631244 C126.478385,56.1890241 126.389178,56.7872649 126.217514,57.4274115 L125.416097,60.415244 L122.176191,60.415244 L122.977608,57.4274115 C123.09189,57.0006471 123.092372,56.644689 122.979055,56.3600188 C122.865255,56.0758304 122.570631,55.9337361 122.096145,55.9337361 C121.620695,55.9337361 121.244579,56.0758304 120.966831,56.3600188 C120.688602,56.644689 120.492828,57.0006471 120.378064,57.4274115 L115.913369,74.0731497 C115.785585,74.5476 115.78655,74.9213801 115.914815,75.1935267 C116.043563,75.466155 116.344938,75.6024691 116.819906,75.6024691 C117.294873,75.6024691 117.663757,75.466155 117.927039,75.1935267 C118.189838,74.9213801 118.385129,74.5476 118.51243,74.0731497 L119.409323,70.7298408 Z" id="Fill-43" fill="#000000"></path>
                <polygon id="Fill-45" fill="#000000" points="135.014879 53.3015728 138.326151 53.3015728 132.487183 75.0689654 135.905504 75.0689654 135.06551 78.1988921 128.335918 78.1988921"></polygon>
                <polygon id="Fill-47" fill="#000000" points="143.560294 53.3015728 146.871566 53.3015728 140.193087 78.1988921 136.881333 78.1988921"></polygon>
                <polygon id="Fill-49" fill="#000000" points="148.096935 78.1988921 144.785663 78.1988921 150.615469 56.4671435 147.837511 56.4671435 148.687148 53.3015728 157.589054 53.3015728 156.739899 56.4671435 153.92674 56.4671435"></polygon>
                <polygon id="Fill-51" fill="#000000" points="156.037236 78.1988921 152.725964 78.1988921 159.404443 53.3015728 162.716197 53.3015728 159.824922 64.078578 162.495832 64.078578 165.386625 53.3015728 168.697896 53.3015728 162.018935 78.1988921 158.707663 78.1988921 161.674644 67.1376984 159.004217 67.1376984"></polygon>
                <polygon id="Fill-53" fill="#000000" points="171.759629 53.3015728 175.070901 53.3015728 168.392422 78.1988921 165.080668 78.1988921"></polygon>
                <path d="M175.68455,74.1086492 C175.557249,74.5830995 175.55966,74.9506178 175.691783,75.2116859 C175.822941,75.4722723 176.126246,75.6028063 176.601213,75.6028063 C177.075699,75.6028063 177.442653,75.4722723 177.703524,75.2116859 C177.96343,74.9506178 178.156793,74.5830995 178.284094,74.1086492 L183.865566,53.3017173 L187.176838,53.3017173 L181.585721,74.1442932 C181.420809,74.7608377 181.187424,75.3422199 180.88653,75.8869948 C180.585637,76.432733 180.205663,76.9004398 179.744679,77.2920419 C179.283213,77.6831623 178.725307,77.9919162 178.071925,78.2168586 C177.418061,78.441801 176.663899,78.5545131 175.809922,78.5545131 C174.907242,78.5545131 174.187799,78.4480628 173.652074,78.2346806 C173.115867,78.0212984 172.721909,77.7188063 172.471165,77.3276859 C172.219456,76.9365654 172.096495,76.468377 172.09987,75.9226387 C172.103728,75.3773822 172.191971,74.7844398 172.363634,74.1442932 L177.95475,53.3017173 L181.266022,53.3017173 L175.68455,74.1086492 Z" id="Fill-55" fill="#000000"></path>
                <polygon id="Fill-57" fill="#000000" points="189.114609 78.1988921 191.159622 59.0282115 187.782771 73.0772377 186.408982 78.1988921 183.346525 78.1988921 190.025486 53.3015728 194.084651 53.3015728 192.012153 71.5122743 199.710486 53.3015728 203.769651 53.3015728 197.09069 78.1988921 194.028234 78.1988921 195.402506 73.0772377 199.562933 59.0282115 191.322124 78.1988921"></polygon>
                <path d="M214.456038,56.4670471 L212.4144,64.0784817 L213.803138,64.0784817 C214.324879,64.0784817 214.694245,63.9185654 214.910271,63.5982513 C215.127261,63.2784188 215.308568,62.8458743 215.454675,62.3001361 L216.590258,58.0676545 C216.736364,57.5223979 216.778798,57.1192356 216.718523,56.8581675 C216.657766,56.5975812 216.378572,56.4670471 215.879976,56.4670471 L214.456038,56.4670471 Z M210.961529,75.0688691 C211.388759,75.0688691 211.710869,74.9744607 211.92786,74.7846806 C212.144368,74.5949005 212.307351,74.2986702 212.415847,73.8955079 L213.875468,68.4535393 C213.983481,68.050377 213.985892,67.7305445 213.883665,67.4930785 C213.781439,67.2560942 213.492118,67.1376021 213.017633,67.1376021 L211.593212,67.1376021 L209.465743,75.0688691 L210.961529,75.0688691 Z M211.993921,53.3014764 L216.83618,53.3014764 C217.690639,53.3014764 218.373918,53.3848063 218.887461,53.5505026 C219.400523,53.7166806 219.772782,53.9657068 220.00472,54.2975812 C220.236177,54.6299372 220.345636,55.0388796 220.334063,55.5244084 C220.322491,56.0109005 220.231355,56.5739791 220.059209,57.2141257 L218.628038,62.5491623 C218.233597,64.0197173 217.44086,65.0269005 216.250788,65.5721571 C216.791335,65.8573089 217.123089,66.2542094 217.248461,66.763822 C217.372387,67.2743979 217.332847,67.9082827 217.129358,68.6669215 L215.70783,73.9663141 C215.536167,74.6064607 215.321106,75.1878429 215.062164,75.7094974 C214.803704,76.2311518 214.470504,76.6757382 214.064008,77.0432565 C213.656549,77.4107749 213.152649,77.695445 212.553274,77.8967853 C211.952934,78.0986073 211.225775,78.1987958 210.370834,78.1987958 L205.31496,78.1987958 L211.993921,53.3014764 Z" id="Fill-59" fill="#000000"></path>
                <path d="M226.999861,57.3563162 C226.273666,59.4434157 225.523362,61.5531539 224.749912,63.6874576 C223.975498,65.8212796 223.237249,67.9319812 222.535165,70.018599 L224.671314,70.018599 C225.018016,67.9319812 225.38931,65.8159812 225.787126,63.6696356 C226.184941,61.5237717 226.588543,59.4193319 226.999861,57.3563162 L226.999861,57.3563162 Z M226.607831,78.1988921 L223.260394,78.1988921 L224.171754,73.0772377 L221.394278,73.0772377 L219.557094,78.1988921 L216.210139,78.1988921 L225.986757,53.3015728 L230.188171,53.3015728 L226.607831,78.1988921 Z" id="Fill-61" fill="#000000"></path>
                <polygon id="Fill-63" fill="#000000" points="232.37471 78.1988921 229.063438 78.1988921 234.893244 56.4671435 232.115768 56.4671435 232.964924 53.3015728 241.86683 53.3015728 241.017674 56.4671435 238.204516 56.4671435"></polygon>
                <polygon id="Fill-65" fill="#000000" points="241.845902 78.1988921 238.53463 78.1988921 244.364436 56.4671435 241.586961 56.4671435 242.436116 53.3015728 251.338022 53.3015728 250.488867 56.4671435 247.675708 56.4671435"></polygon>
                <polygon id="Fill-67" fill="#000000" points="250.590466 75.0689173 254.863246 75.0689173 254.023735 78.198844 246.439683 78.198844 253.118162 53.3015246 260.702696 53.3015246 259.853541 56.4670953 255.580761 56.4670953 253.538641 64.0785298 257.241942 64.0785298 256.421237 67.1376503 252.717936 67.1376503"></polygon>
                <path d="M264.921807,64.6477257 C265.373147,64.6477257 265.710205,64.5407937 265.933946,64.3274115 C266.156723,64.1140293 266.323082,63.8062387 266.431577,63.4030764 L267.957742,57.7120817 C268.072506,57.2848356 268.067202,56.9707832 267.943759,56.7694429 C267.819833,56.5681026 267.531959,56.4669508 267.081584,56.4669508 L265.692846,56.4669508 L263.497869,64.6477257 L264.921807,64.6477257 Z M263.230247,53.3013801 L268.215238,53.3013801 C269.069697,53.3013801 269.742367,53.4025319 270.234694,53.6038723 C270.726539,53.8056942 271.075652,54.0961445 271.282516,54.475223 C271.48938,54.8547832 271.581962,55.3051497 271.561228,55.8268042 C271.540011,56.3489403 271.443089,56.9293592 271.271425,57.5699874 L269.678234,63.5095267 C269.392289,64.5764377 269.004118,65.4477885 268.514202,66.1235791 C268.024286,66.7993696 267.29327,67.2680398 266.321153,67.5286262 C266.461474,69.3069717 266.583953,71.0853173 266.688108,72.8641445 C266.792746,74.6424901 266.90317,76.4203539 267.019862,78.1986995 L263.42361,78.1986995 C263.396124,76.4444377 263.354173,74.6954743 263.300166,72.9527728 C263.244713,71.2100712 263.206619,69.4495476 263.18492,67.6707204 L262.686807,67.6707204 L259.86304,78.1986995 L256.551768,78.1986995 L263.230247,53.3013801 Z" id="Fill-69" fill="#000000"></path>
                <polygon id="Fill-71" fill="#000000" points="270.259431 78.1988921 272.835829 68.5957298 273.698004 53.3015728 277.187207 53.3015728 275.790272 63.6874576 280.000366 53.3015728 283.48957 53.3015728 276.147101 68.5957298 273.570703 78.1988921"></polygon>
            </g>
        </g>
    </g>
</svg>