<?xml version="1.0" encoding="UTF-8"?>
<svg width="32px" height="32px" viewBox="0 0 32 32" version="1.1" xmlns="http://www.w3.org/2000/svg" xmlns:xlink="http://www.w3.org/1999/xlink">
    <!-- Generator: Sketch 42 (36781) - http://www.bohemiancoding.com/sketch -->
    <title>SVG/Search</title>
    <desc>Created with Sketch.</desc>
    <defs>
        <path d="M9.94544448,18.4254011 C8.81196319,17.2928894 8.1885,15.7861059 8.1885,14.1843 C8.1885,12.5815245 8.81196319,11.074741 9.94544448,9.94125968 C11.1157712,8.77190259 12.6516432,8.18625442 14.1884848,8.18625442 C15.7243568,8.18625442 17.2611984,8.77190259 18.4305555,9.94125968 C19.5640368,11.074741 20.1875,12.5815245 20.1875,14.1843 C20.1875,15.7861059 19.5640368,17.2928894 18.4305555,18.4254011 C17.2970742,19.5588824 15.7902907,20.1823456 14.1884848,20.1823456 C12.5857093,20.1823456 11.0789258,19.5588824 9.94544448,18.4254011 M24.3085,22.1823 L20.2185,18.0923 C20.9695,16.9383 21.3755,15.5933 21.3755,14.1843 C21.3755,12.2633 20.6275,10.4583 19.2705,9.1013 C16.4675,6.2993 11.9085,6.2993 9.1055,9.1013 C7.7485,10.4583 6.9995,12.2633 6.9995,14.1843 C6.9995,16.1043 7.7485,17.9093 9.1055,19.2653 C10.4625,20.6233 12.2685,21.3713 14.1885,21.3713 C15.5975,21.3713 16.9435,20.9643 18.0975,20.2133 L22.1875,24.3033 C22.4805,24.5963 22.8645,24.7433 23.2485,24.7433 C23.6315,24.7433 24.0155,24.5963 24.3085,24.3033 C24.8945,23.7173 24.8945,22.7683 24.3085,22.1823" id="path-1"></path>
    </defs>
    <g id="Symbols" stroke="none" stroke-width="1" fill="none" fill-rule="evenodd">
        <g id="SVG/Search">
            <mask id="mask-2" fill="white">
                <use xlink:href="#path-1"></use>
            </mask>
            <use id="Fill-1" fill="#77BC1F" xlink:href="#path-1"></use>
            <g id="Mixin/Fill/Green" mask="url(#mask-2)" fill="#77BC1F">
                <rect x="0" y="0" width="32" height="32"></rect>
            </g>
        </g>
    </g>
</svg>