<svg id="Layer_1" data-name="Layer 1" xmlns="http://www.w3.org/2000/svg" viewBox="0 0 118.42 141"><defs><style>.cls-1,.cls-5,.cls-6,.cls-7{fill:#77bc1f;}.cls-2,.cls-3,.cls-4{fill:none;}.cls-2,.cls-3{stroke:#77bc1f;stroke-linecap:round;stroke-miterlimit:10;}.cls-2{stroke-width:1.29px;}.cls-3{stroke-width:2.59px;}.cls-5{opacity:0.5;}.cls-6{opacity:0.3;}.cls-7{opacity:0.2;}</style></defs><title>ADJUSTABLECUTTINGANGLE</title><path class="cls-1" d="M65,108.63l-1.48.7a18.81,18.81,0,0,1-4.36,22.07l-1.32-2-2.92,5.83,6.51-.39-1.36-2.06A20.44,20.44,0,0,0,65,108.63Z"/><path class="cls-1" d="M23.87,98.8l-6.51.39,1.36,2.06a20.44,20.44,0,0,0-4.93,24.15l1.48-.7a18.81,18.81,0,0,1,4.36-22.07l1.32,2Z"/><path class="cls-1" d="M107.89,44.4a.65.65,0,0,1-.47-1.09l4.39-4.73a.65.65,0,1,1,.95.88l-4.39,4.73A.64.64,0,0,1,107.89,44.4Z"/><path class="cls-1" d="M111.71,40.93a1.29,1.29,0,0,1-.95-2.17l5.42-5.84a1.29,1.29,0,0,1,1.9,1.76l-5.42,5.84A1.29,1.29,0,0,1,111.71,40.93Z"/><path class="cls-1" d="M99.68,53.25a.65.65,0,0,1-.47-1.09l4.39-4.73a.65.65,0,1,1,.95.88L100.16,53A.64.64,0,0,1,99.68,53.25Z"/><path class="cls-1" d="M103.5,49.78a1.29,1.29,0,0,1-.95-2.17L108,41.77a1.29,1.29,0,0,1,1.9,1.76l-5.42,5.84A1.29,1.29,0,0,1,103.5,49.78Z"/><path class="cls-1" d="M91.48,62.11A.65.65,0,0,1,91,61l4.39-4.73a.65.65,0,1,1,.95.88L91.95,61.9A.64.64,0,0,1,91.48,62.11Z"/><path class="cls-1" d="M95.29,58.64a1.29,1.29,0,0,1-.95-2.17l5.42-5.84a1.29,1.29,0,0,1,1.9,1.76l-5.42,5.84A1.29,1.29,0,0,1,95.29,58.64Z"/><path class="cls-1" d="M83.27,71a.65.65,0,0,1-.47-1.09l4.39-4.73a.65.65,0,1,1,.95.88l-4.39,4.73A.64.64,0,0,1,83.27,71Z"/><path class="cls-1" d="M87.08,67.49a1.29,1.29,0,0,1-.95-2.17l5.42-5.84a1.29,1.29,0,0,1,1.9,1.76L88,67.07A1.29,1.29,0,0,1,87.08,67.49Z"/><path class="cls-1" d="M75.06,79.81a.65.65,0,0,1-.47-1.09L79,74a.65.65,0,1,1,.95.88L75.53,79.6A.64.64,0,0,1,75.06,79.81Z"/><path class="cls-1" d="M78.88,76.34a1.29,1.29,0,0,1-.95-2.17l5.42-5.84a1.29,1.29,0,0,1,1.9,1.76l-5.42,5.84A1.29,1.29,0,0,1,78.88,76.34Z"/><line class="cls-2" x1="71.24" y1="83.28" x2="66.85" y2="88.02"/><line class="cls-3" x1="76.08" y1="78.06" x2="70.67" y2="83.9"/><line class="cls-2" x1="63.03" y1="92.14" x2="58.64" y2="96.87"/><line class="cls-3" x1="67.87" y1="86.91" x2="62.46" y2="92.75"/><path class="cls-1" d="M50.43,106.37a.65.65,0,0,1-.47-1.09l4.39-4.73a.65.65,0,1,1,.95.88l-4.39,4.73A.64.64,0,0,1,50.43,106.37Z"/><path class="cls-1" d="M54.25,102.9a1.29,1.29,0,0,1-.95-2.17l5.42-5.84a1.29,1.29,0,0,1,1.9,1.76l-5.42,5.84A1.29,1.29,0,0,1,54.25,102.9Z"/><path class="cls-4" d="M40.45,109.15a6.84,6.84,0,0,0-6.37,9.35l.13.33L21.73,131.3a2,2,0,0,0,0,2.88l.21.21a2,2,0,0,0,2.88,0L37.2,122l.35.16a6.84,6.84,0,1,0,2.9-13Z"/><path class="cls-1" d="M37.44,123.33l-.49.49V141h7V123.11A8,8,0,0,1,37.44,123.33Z"/><path class="cls-1" d="M50.83,105.29a3.23,3.23,0,0,0-4.57.17l-2.92,3.14a7.88,7.88,0,0,1,4.53,4.63L51,109.86A3.23,3.23,0,0,0,50.83,105.29Z"/><path class="cls-5" d="M80.7,10.76A1.29,1.29,0,0,0,79,11.5l-2.86,7.43a1.29,1.29,0,0,0,.2,1.27L75.69,22a1.29,1.29,0,0,0-1,.81L71.83,30.2a1.29,1.29,0,0,0,.2,1.27l-.68,1.75a1.29,1.29,0,0,0-1,.81l-2.86,7.43a1.29,1.29,0,0,0,.2,1.27L67,44.49a1.29,1.29,0,0,0-1,.81l-2.86,7.43a1.29,1.29,0,0,0,.2,1.27l-.68,1.75a1.29,1.29,0,0,0-1,.81L58.81,64a1.29,1.29,0,0,0,.2,1.27L58.34,67a1.29,1.29,0,0,0-1,.81l-2.86,7.43a1.29,1.29,0,0,0,.2,1.27L54,78.29a1.29,1.29,0,0,0-1,.81l-2.86,7.43a1.29,1.29,0,0,0,.2,1.27l-.68,1.75a1.29,1.29,0,0,0-1,.81L45.79,97.8a1.29,1.29,0,0,0,.2,1.27l-1.43,3.71a3.23,3.23,0,0,0-3.55,2l-1.26,3.28c.23,0,.46,0,.7,0a7.88,7.88,0,0,1,5.42,2.15L47,107.13a3.23,3.23,0,0,0-1.27-3.89l1.43-3.72a1.28,1.28,0,0,0,1-.8l2.86-7.43a1.29,1.29,0,0,0-.2-1.27l.68-1.76a1.28,1.28,0,0,0,1-.8L55.41,80a1.29,1.29,0,0,0-.2-1.27L55.88,77a1.28,1.28,0,0,0,1-.8l2.86-7.43a1.29,1.29,0,0,0-.2-1.27l.68-1.76a1.28,1.28,0,0,0,1-.8l2.86-7.43a1.29,1.29,0,0,0-.2-1.27l.68-1.76a1.28,1.28,0,0,0,1-.8l2.86-7.43a1.29,1.29,0,0,0-.2-1.27l.68-1.76a1.28,1.28,0,0,0,1-.8L72.76,35a1.29,1.29,0,0,0-.2-1.27l.68-1.76a1.28,1.28,0,0,0,1-.8L77.1,23.7a1.29,1.29,0,0,0-.2-1.27l.68-1.76a1.28,1.28,0,0,0,1-.8l2.86-7.43A1.29,1.29,0,0,0,80.7,10.76Z"/><path class="cls-6" d="M40.69,98.86v-4a1.29,1.29,0,0,0,.65-1.11v-8a1.29,1.29,0,0,0-.65-1.11V82.81a1.29,1.29,0,0,0,.65-1.11v-8a1.29,1.29,0,0,0-.65-1.11V70.74a1.29,1.29,0,0,0,.65-1.11v-8a1.29,1.29,0,0,0-.65-1.11V58.66a1.29,1.29,0,0,0,.65-1.11v-8a1.29,1.29,0,0,0-.65-1.11V46.59a1.29,1.29,0,0,0,.65-1.11v-8a1.29,1.29,0,0,0-.65-1.11V34.52a1.29,1.29,0,0,0,.65-1.11v-8a1.29,1.29,0,0,0-.65-1.11V22.45a1.29,1.29,0,0,0,.65-1.11v-8a1.29,1.29,0,0,0-.65-1.11V10.37a1.29,1.29,0,0,0,.65-1.11v-8a1.29,1.29,0,0,0-2.59,0v8a1.29,1.29,0,0,0,.65,1.11v1.88a1.29,1.29,0,0,0-.65,1.11v8a1.29,1.29,0,0,0,.65,1.11v1.88a1.29,1.29,0,0,0-.65,1.11v8a1.29,1.29,0,0,0,.65,1.11V36.4a1.29,1.29,0,0,0-.65,1.11v8a1.29,1.29,0,0,0,.65,1.11v1.88a1.29,1.29,0,0,0-.65,1.11v8a1.29,1.29,0,0,0,.65,1.11v1.88a1.29,1.29,0,0,0-.65,1.11v8a1.29,1.29,0,0,0,.65,1.11v1.88a1.29,1.29,0,0,0-.65,1.11v8a1.29,1.29,0,0,0,.65,1.11v1.88a1.29,1.29,0,0,0-.65,1.11v8a1.29,1.29,0,0,0,.65,1.11v4A3.23,3.23,0,0,0,36.8,102v6.91a7.91,7.91,0,0,1,6.47-.36V102A3.23,3.23,0,0,0,40.69,98.86Z"/><path class="cls-7" d="M37,105.34a3.23,3.23,0,0,0-3.47-2.16l-1.29-3.76a1.29,1.29,0,0,0,.25-1.26L29.9,90.62a1.29,1.29,0,0,0-1-.84L28.32,88a1.29,1.29,0,0,0,.25-1.26L26,79.2a1.29,1.29,0,0,0-1-.84l-.61-1.78a1.29,1.29,0,0,0,.25-1.26l-2.58-7.54a1.29,1.29,0,0,0-1-.84l-.61-1.78a1.29,1.29,0,0,0,.25-1.26l-2.58-7.54a1.29,1.29,0,0,0-1-.84l-.61-1.78a1.29,1.29,0,0,0,.25-1.26l-2.58-7.54a1.29,1.29,0,0,0-1-.84l-.61-1.78a1.29,1.29,0,0,0,.25-1.26l-2.58-7.54a1.29,1.29,0,0,0-1-.84l-.61-1.78A1.29,1.29,0,0,0,9,29.63L6.43,22.09a1.29,1.29,0,0,0-1-.84l-.61-1.78a1.29,1.29,0,0,0,.25-1.26L2.52,10.67a1.29,1.29,0,1,0-2.45.84L2.65,19a1.28,1.28,0,0,0,1,.84l.61,1.79A1.29,1.29,0,0,0,4,22.93l2.58,7.54a1.28,1.28,0,0,0,1,.83l.61,1.79a1.29,1.29,0,0,0-.25,1.26l2.58,7.54a1.28,1.28,0,0,0,1,.84l.61,1.79a1.29,1.29,0,0,0-.25,1.26l2.58,7.54a1.28,1.28,0,0,0,1,.84L16,55.93a1.29,1.29,0,0,0-.25,1.26l2.58,7.54a1.28,1.28,0,0,0,1,.84l.61,1.79a1.29,1.29,0,0,0-.25,1.26l2.58,7.54a1.28,1.28,0,0,0,1,.84l.61,1.79A1.29,1.29,0,0,0,23.54,80l2.58,7.54a1.28,1.28,0,0,0,1,.83l.61,1.79a1.29,1.29,0,0,0-.25,1.26L30,99a1.28,1.28,0,0,0,1,.84l1.29,3.77a3.23,3.23,0,0,0-1.42,3.84l2.06,6a7.86,7.86,0,0,1,5.11-5Z"/><path class="cls-1" d="M45.28,111.15a6.84,6.84,0,0,0-11.21,7.35l.13.33L21.73,131.3a2,2,0,0,0,0,2.88l.21.21a2,2,0,0,0,2.88,0L37.2,122l.35.16a6.84,6.84,0,0,0,7.74-11Z"/></svg>