<svg id="Layer_1" data-name="Layer 1" xmlns="http://www.w3.org/2000/svg" viewBox="0 0 114.77 133.03"><defs><style>.cls-1{fill:#77bc1f;}</style></defs><title>ADJUSTABLE CUTTING DEPTH</title><path class="cls-1" d="M77.07,96.83a14,14,0,1,1,14-14A14,14,0,0,1,77.07,96.83Zm0-25.43A11.48,11.48,0,1,0,88.55,82.87,11.49,11.49,0,0,0,77.07,71.39Z"/><path class="cls-1" d="M58,48.9s-2.42.62-6.73,4.38S46,59.35,46,59.35l50.17,57.49s2.44-.64,6.73-4.38,5.25-6.07,5.25-6.07ZM80.21,86.46a4.77,4.77,0,1,1,.46-6.73A4.77,4.77,0,0,1,80.21,86.46Z"/><path class="cls-1" d="M113.24,31.56c-6.85-1.69-16.19-3.5-21.85-3.5A74.33,74.33,0,0,0,22.08,75.78a15.78,15.78,0,0,1,2.94.69A71.33,71.33,0,0,1,91.39,31.06c5,0,13.12,1.51,19.6,3-2.33,7.79-12.88,43.26-15.32,53.15-3.28,13.31-15.87,13.53-16.4,13.53H32.87a16.05,16.05,0,0,1-2.77,3H79.27c.15,0,15.46-.18,19.32-15.81,2.71-11,15.6-54.09,15.73-54.52l.45-1.51Z"/><path class="cls-1" d="M19.92,111.46A19.92,19.92,0,1,1,39.85,91.54,19.95,19.95,0,0,1,19.92,111.46Zm0-35.85A15.92,15.92,0,1,0,35.85,91.54,15.94,15.94,0,0,0,19.92,75.62Z"/><circle class="cls-1" cx="19.92" cy="91.54" r="8.94"/><polygon class="cls-1" points="21.42 114.26 18.42 114.26 18.42 122.67 13.94 122.67 19.92 133.03 25.91 122.67 21.42 122.67 21.42 114.26"/><polygon class="cls-1" points="18.42 68.62 21.42 68.62 21.42 60.21 25.91 60.21 19.92 49.85 13.94 60.21 18.42 60.21 18.42 68.62"/><polygon class="cls-1" points="11.57 0 3.75 0 43.55 47.52 48.15 43.67 11.57 0"/></svg>