<svg id="Layer_1" data-name="Layer 1" xmlns="http://www.w3.org/2000/svg" viewBox="0 0 131.89 88.24"><defs><style>.cls-1{fill:none;}.cls-2{fill:#77bc1f;}</style></defs><title>XXCMBAR LENGTH</title><circle class="cls-1" cx="15.45" cy="74.4" r="1.87" transform="translate(-27.3 11.57) rotate(-22.5)"/><circle class="cls-1" cx="28.59" cy="68.96" r="1.05" transform="translate(-24.21 16.19) rotate(-22.5)"/><circle class="cls-1" cx="37.21" cy="65.39" r="1.87" transform="translate(-22.19 19.22) rotate(-22.5)"/><path class="cls-2" d="M48.88,48.44c-16.57,7.24-34,16.36-37,18.6s-5,5.87-3.23,10.18,5.78,5.43,9.48,4.91,22.47-6.4,39.31-13c14.61-5.72,53.87-21.85,70.52-29l-8.69-21C102.42,25.79,63.25,42.15,48.88,48.44ZM16.16,76.13a1.87,1.87,0,1,1,1-2.44A1.87,1.87,0,0,1,16.16,76.13ZM29,69.93a1,1,0,1,1,.57-1.37A1,1,0,0,1,29,69.93Zm8.93-2.82a1.87,1.87,0,1,1,1-2.44A1.87,1.87,0,0,1,37.93,67.11Z"/><path class="cls-2" d="M131.89,0l-6.42,2.66c-3.68,1.53-9.87,7.59-8.34,11.27l2.14,5.18,8.69,21,2.71,6.53a3.52,3.52,0,0,0,1.23,1.46Z"/><polygon class="cls-2" points="108.9 13.09 116.89 2.67 103.87 0.95 105.38 4.58 9.5 44.3 8 40.66 0 51.09 13.02 52.8 11.52 49.16 107.39 9.45 108.9 13.09"/><path class="cls-2" d="M45.19,46.82l2.49-1.1,1.39-.61-1.21-2.77-1.39.61L44,44.05l-1.38.62,1.23,2.77Z"/><rect class="cls-2" x="56.77" y="37.42" width="5.76" height="3.03" transform="translate(-10.46 26.37) rotate(-22.97)"/><polygon class="cls-2" points="55.98 42.14 54.79 39.36 49.48 41.63 50.68 44.42 55.98 42.14"/><path class="cls-2" d="M18.26,59.92l2.4-1.27,1.34-.7-1.4-2.68-1.34.7-2.43,1.28L15.5,58l1.43,2.67Z"/><path class="cls-2" d="M10.12,83.48l-1.28-.81L7.22,85.23,8.5,86a13.55,13.55,0,0,0,2.76,1.34l1.43.5,1-2.86-1.43-.5A10.54,10.54,0,0,1,10.12,83.48Z"/><path class="cls-2" d="M6.8,68.15a13,13,0,0,1,1.52-1.91l1-1.09L7.18,63.06l-1,1.09a16,16,0,0,0-1.87,2.36l-.82,1.27L6,69.42Z"/><path class="cls-2" d="M13.92,58.82l-1.32.75c-.92.52-1.72,1-2.4,1.41l-1.29.79,1.58,2.58,1.29-.79c.66-.4,1.43-.86,2.31-1.36l1.32-.75Z"/><rect class="cls-2" x="63.7" y="34.49" width="5.76" height="3.03" transform="translate(-8.76 28.71) rotate(-22.87)"/><path class="cls-2" d="M5,74.39c0-.12,0-.25,0-.37a10.49,10.49,0,0,1,.19-2l.29-1.49-3-.58-.29,1.49A13.47,13.47,0,0,0,2,74q0,.24,0,.47L2.06,76l3-.1Z"/><rect class="cls-2" x="77.58" y="28.67" width="5.76" height="3.03" transform="translate(-5.42 33.22) rotate(-22.59)"/><path class="cls-2" d="M121.53,15l2.54-1,1.42-.52-1-2.84-1.42.52-2.58,1-1.41.55,1.09,2.82Z"/><polygon class="cls-2" points="118.5 16.22 117.38 13.41 112.02 15.55 113.14 18.36 118.5 16.22"/><rect class="cls-2" x="126.47" y="9.2" width="4.77" height="3.03" transform="translate(4.1 44.7) rotate(-19.99)"/><rect class="cls-2" x="105.4" y="17.19" width="5.77" height="3.03" transform="translate(0.9 42.02) rotate(-22.05)"/><path class="cls-2" d="M18.91,85l-.36.06a14.94,14.94,0,0,1-2.1.15H14.94l0,3h1.51A17.93,17.93,0,0,0,19,88.06l.47-.07,1.49-.27-.53-3Z"/><rect class="cls-2" x="84.52" y="25.78" width="5.76" height="3.03" transform="translate(-3.79 35.6) rotate(-22.55)"/><rect class="cls-2" x="70.64" y="31.58" width="5.76" height="3.03" transform="translate(-7.08 31.03) rotate(-22.77)"/><rect class="cls-2" x="91.47" y="22.9" width="5.76" height="3.03" transform="translate(-2.17 37.88) rotate(-22.45)"/><polygon class="cls-2" points="104.55 21.86 103.4 19.06 98.07 21.25 99.22 24.05 104.55 21.86"/><path class="cls-2" d="M7.14,80.61A12,12,0,0,1,6,78.48l-.6-1.39L2.59,78.28l.6,1.39a15.15,15.15,0,0,0,1.46,2.65l.86,1.24L8,81.85Z"/><rect class="cls-2" x="85.65" y="59.88" width="5.76" height="3.03" transform="translate(-16.65 38.09) rotate(-22.25)"/><rect class="cls-2" x="92.61" y="57.02" width="5.77" height="3.03" transform="translate(-15.1 40.78) rotate(-22.39)"/><rect class="cls-2" x="78.69" y="62.73" width="5.76" height="3.03" transform="translate(-18.2 35.49) rotate(-22.15)"/><path class="cls-2" d="M26,83.15l-2.6.75L22,84.3l.81,2.92,1.46-.41,2.65-.76,1.45-.43-.86-2.9Z"/><polygon class="cls-2" points="113.09 49.6 114.25 52.4 119.57 50.17 118.4 47.38 113.09 49.6"/><rect class="cls-2" x="120.38" y="45.45" width="5.76" height="3.03" transform="translate(-8.56 51.73) rotate(-22.93)"/><path class="cls-2" d="M131.76,41.67l-.94.41-2.51,1.09-1.39.6,1.2,2.78,1.39-.6,2.24-1Z"/><rect class="cls-2" x="71.72" y="65.56" width="5.76" height="3.03" transform="translate(-19.73 32.92) rotate(-22.05)"/><rect class="cls-2" x="106.51" y="51.27" width="5.76" height="3.03" transform="translate(-11.88 46.06) rotate(-22.59)"/><rect class="cls-2" x="99.56" y="54.15" width="5.76" height="3.03" transform="translate(-13.5 43.38) rotate(-22.47)"/><path class="cls-2" d="M33.16,80.93l-2.59.83-1.44.46L30,85.1l1.44-.46,2.62-.84,1.44-.47-.93-2.88Z"/><path class="cls-2" d="M31.62,53.15,34.07,52l1.37-.65-1.3-2.73-1.37.65-2.47,1.19-1.36.66,1.32,2.72Z"/><path class="cls-2" d="M26,52.54l-2.45,1.23-1.35.68,1.37,2.7,1.35-.68,2.44-1.22,1.36-.68-1.35-2.71Z"/><rect class="cls-2" x="64.75" y="68.38" width="5.76" height="3.03" transform="translate(-21.15 30.19) rotate(-21.85)"/><path class="cls-2" d="M38.38,49.93l2.47-1.15,1.38-.63L41,45.4,39.59,46,37.1,47.18l-1.37.64L37,50.57Z"/><path class="cls-2" d="M40.27,78.56l-2.58.88-1.43.48,1,2.87,1.44-.48,2.6-.88,1.43-.49-1-2.86Z"/><path class="cls-2" d="M61.35,70.77l-2.54,1-1.41.55,1.11,2.82,1.41-.55,2.55-1L63.88,73l-1.12-2.81Z"/><path class="cls-2" d="M54.37,73.48l-2.55,1L50.4,75l1.05,2.84,1.42-.53,2.57-1,1.42-.54-1.07-2.83Z"/><path class="cls-2" d="M47.34,76.08,44.77,77l-1.43.5,1,2.85,1.43-.5,2.58-.92,1.42-.51-1-2.85Z"/></svg>