<svg id="Layer_1" data-name="Layer 1" xmlns="http://www.w3.org/2000/svg" viewBox="0 0 132.68 91.05"><defs><style>.cls-1{fill:#77bc1f;}</style></defs><title>XXCM BLADELENGTH</title><path class="cls-1" d="M126.8,3.51c-1.35.56-.48,10.51,2.86,19.2l-1.58.65-1.86.77c-.79.33-1.7-.17-2.38-1.19s-2.37-3.75-2.94-4.68-.59-.8-1.37-.48l-1.57.65c-.78.32-.86.35-.63,1.31s1,4.19,1.23,5.39-.05,2.2-.84,2.52L114,29.19c-.79.33-1.7-.17-2.38-1.19s-2.37-3.75-2.94-4.68-.59-.8-1.37-.48l-1.57.65c-.78.32-.86.35-.63,1.31s1,4.19,1.23,5.39-.05,2.2-.84,2.52l-.19.08-.18.07-.54.22-.18.07-.54.22-.09,0-.16.07-.07,0-.22.09-.13.06-.58.24-.39.16-.37.15-.06,0c-.79.33-1.7-.17-2.38-1.19s-2.37-3.75-2.94-4.68-.59-.8-1.37-.48l-1.57.65c-.78.32-.86.35-.63,1.31s1,4.19,1.23,5.39-.05,2.2-.84,2.52l-.13.05-.27.11-.47.19-.39.16-.33.14-.16.06-.12,0-1.86.77c-.79.33-1.7-.17-2.38-1.19s-2.37-3.75-2.94-4.68-.59-.8-1.37-.48l-1.57.65c-.78.32-.86.35-.63,1.31s1,4.19,1.23,5.39-.05,2.2-.84,2.52l-1.86.77-1.86.77c-.79.33-1.7-.17-2.38-1.19s-2.37-3.75-2.94-4.68-.59-.8-1.37-.48l-1.57.65c-.78.32-.86.35-.63,1.31s1,4.19,1.23,5.39-.05,2.2-.84,2.52L67,48.65l-1.86.77c-.79.33-1.7-.17-2.38-1.19s-2.37-3.75-2.94-4.68-.59-.8-1.37-.48l-1.57.65c-.78.32-.86.35-.63,1.31s1,4.19,1.23,5.39-.05,2.2-.84,2.52l-1.86.77L53,54.48c-.79.33-1.7-.17-2.38-1.19s-2.37-3.75-2.94-4.68-.59-.8-1.37-.48l-1.57.65c-.78.32-.86.35-.63,1.31s1,4.19,1.23,5.39-.05,2.2-.84,2.52l-1.86.77-1.86.77c-.79.33-1.7-.17-2.38-1.19S36,54.6,35.43,53.67s-.59-.8-1.37-.48l-1.57.65c-.78.32-.86.35-.63,1.31s1,4.19,1.23,5.39-.05,2.2-.84,2.52l-1.86.77-1.86.77c-.79.33-1.7-.17-2.38-1.19s-2.37-3.75-2.94-4.68-.59-.8-1.37-.48l-1.57.65c-.78.32-.86.35-.63,1.31s1,4.19,1.23,5.39-.05,2.2-.84,2.52l-1.86.77-1.86.77c-.79.33-1.7-.17-2.38-1.19S11.58,64.71,11,63.78s-.59-.8-1.37-.48L8.06,64c-.78.32-.86.35-.63,1.31l.21.91-.78-1.89C6.29,62.89,5,62.11,4,62.54L.45,64c-1,.43-.3,8.31,2.41,14.84S10.62,91.45,11.64,91l3.52-1.46c1-.43,1.39-1.89.82-3.28l-2.5-6,2.09-.86,1.86-.77c.79-.33,1.7.17,2.38,1.19s2.37,3.75,2.94,4.68.59.8,1.37.48l1.57-.65c.78-.32.86-.35.63-1.31s-1-4.19-1.23-5.39.05-2.2.84-2.52l1.86-.77,1.86-.77c.79-.33,1.7.17,2.38,1.19s2.37,3.75,2.94,4.68.59.8,1.37.48l1.57-.65c.78-.32.86-.35.63-1.31s-1-4.19-1.23-5.39.05-2.2.84-2.52L40,69.28l1.86-.77c.79-.33,1.7.17,2.38,1.19s2.37,3.75,2.94,4.68.59.8,1.37.48l1.57-.65c.78-.32.86-.35.63-1.31s-1-4.19-1.23-5.39.05-2.2.84-2.52l1.86-.77,1.86-.77c.79-.33,1.7.17,2.38,1.19s2.37,3.75,2.94,4.68.59.8,1.37.48l1.57-.65c.78-.32.86-.35.63-1.31s-1-4.19-1.23-5.39.05-2.2.84-2.52l1.86-.77,1.86-.77c.79-.33,1.7.17,2.38,1.19s2.37,3.75,2.94,4.68.59.8,1.37.48l1.57-.65c.78-.32.86-.35.63-1.31s-1-4.19-1.23-5.39.05-2.2.84-2.52l1.86-.77,1.86-.77c.79-.33,1.7.17,2.38,1.19s2.37,3.75,2.94,4.68.59.8,1.37.48L86.74,59c.78-.32.86-.35.63-1.31s-1-4.19-1.23-5.39.05-2.2.84-2.52L88.84,49l1.86-.77c.79-.33,1.7.17,2.38,1.19s2.37,3.75,2.94,4.68.59.8,1.37.48L99,54c.78-.32.86-.35.63-1.31s-1-4.19-1.23-5.39.05-2.2.84-2.52L101,44l1.86-.77c.79-.33,1.7.17,2.38,1.19s2.37,3.75,2.94,4.68.59.8,1.37.48l1.57-.65c.78-.32.86-.35.63-1.31s-1-4.19-1.23-5.39.05-2.2.84-2.52l1.86-.77,1.86-.77c.79-.33,1.7.17,2.38,1.19s2.37,3.75,2.94,4.68.59.8,1.37.48l1.57-.65c.78-.32.86-.35.63-1.31s-1-4.19-1.23-5.39.05-2.2.84-2.52l1.86-.77,1.86-.77c.79-.33,1.7.17,2.38,1.19S132.07,38,132.64,39l0,.05V0Z"/><polygon class="cls-1" points="11.41 54.43 113.4 12.19 114.86 15.69 122.57 5.64 110.01 3.99 111.46 7.49 9.46 49.74 8.01 46.23 0.3 56.29 12.86 57.94 11.41 54.43"/></svg>