<svg id="Layer_1" data-name="Layer 1" xmlns="http://www.w3.org/2000/svg" viewBox="0 0 139.28 108.8"><defs><style>.cls-1{fill:#77bc1f;}</style></defs><title>XXMM BLADE GAP</title><path class="cls-1" d="M139.28,35.5a5.35,5.35,0,0,1-3.91,1.8H120c-3.25,0-5.76-3.1-6.64-7.67s-2.89-16.69-3.54-20.81c-.59-3.7-.92-3.69-4.14-3.69H99.2c-3.21,0-3.54,0-4.14,3.69-.66,4.12-2.66,16.24-3.54,20.81s-3.39,7.67-6.64,7.67H69.53c-3.25,0-5.76-3.1-6.64-7.67S60,12.94,59.35,8.82c-.59-3.7-.92-3.69-4.13-3.69h-6.5c-3.21,0-3.54,0-4.14,3.69-.66,4.12-2.66,16.24-3.54,20.81s-3.39,7.67-6.64,7.67H19c-3.25,0-5.76-3.1-6.64-7.67S9.51,12.94,8.86,8.82c-.59-3.7-.92-3.69-4.13-3.69H0V70.6H8.47c3.25,0,5.76,3.1,6.64,7.67S18,95,18.65,99.08c.59,3.7.92,3.69,4.13,3.69h6.5c3.21,0,3.54,0,4.14-3.69C34.08,95,36.08,82.85,37,78.27s3.39-7.67,6.64-7.67H59c3.25,0,5.76,3.1,6.64,7.67S68.49,95,69.14,99.08c.59,3.7.92,3.69,4.14,3.69h6.5c3.21,0,3.54,0,4.13-3.69.66-4.12,2.66-16.24,3.54-20.81s3.39-7.67,6.64-7.67h15.35c3.25,0,5.76,3.1,6.64,7.67S119,95,119.63,99.08c.59,3.7.92,3.69,4.14,3.69h6.5c3.21,0,3.54,0,4.13-3.69.66-4.12,2.66-16.24,3.54-20.81a14,14,0,0,1,1.34-3.91Z"/><polygon class="cls-1" points="56.82 99.89 44.54 99.89 44.54 96.09 33.52 102.45 44.54 108.81 44.54 105 56.82 105 56.82 108.81 67.84 102.45 56.82 96.09 56.82 99.89"/><polygon class="cls-1" points="94.37 6.36 83.35 0 83.35 3.81 71.07 3.81 71.07 0 60.05 6.36 71.07 12.72 71.07 8.91 83.35 8.91 83.35 12.72 94.37 6.36"/></svg>