<svg id="Layer_1" data-name="Layer 1" xmlns="http://www.w3.org/2000/svg" viewBox="0 0 125.23 125.26"><defs><style>.cls-1{fill:#77bc1f;}</style></defs><title>BRUSHLESSMOTOR</title><path class="cls-1" d="M62.59,125.26A62.61,62.61,0,0,1,41.22,3.81a62.6,62.6,0,0,1,80.23,37.41h0a62.68,62.68,0,0,1-58.86,84ZM62.57,5a57.6,57.6,0,0,0-24.28,109.8A57.6,57.6,0,1,0,62.57,5Z"/><path class="cls-1" d="M109.76,68.87a2,2,0,0,0-2.32,1.62,45.67,45.67,0,0,1-2.31,8.36L80,64.34a17.32,17.32,0,0,0,0-3.12l25.22-14.56a45.54,45.54,0,0,1,2.46,9.82,2,2,0,0,0,2,1.73l.27,0a2,2,0,0,0,1.71-2.25A49.38,49.38,0,0,0,94.43,24.65a2,2,0,1,0-2.57,3.06,45.64,45.64,0,0,1,6.08,6.18L72.78,48.42a17.55,17.55,0,0,0-2.68-1.57V17.75a45.51,45.51,0,0,1,9.74,2.78,2,2,0,1,0,1.52-3.7,49.39,49.39,0,0,0-35.72-.72A2,2,0,1,0,47,19.86a45.64,45.64,0,0,1,8.39-2.17V46.75a17.38,17.38,0,0,0-2.56,1.44L27.61,33.62a45.53,45.53,0,0,1,7.27-7,2,2,0,1,0-2.45-3.17A49.39,49.39,0,0,0,14,54a2,2,0,0,0,1.62,2.32,2,2,0,0,0,.35,0,2,2,0,0,0,2-1.65,45.67,45.67,0,0,1,2.31-8.36L45.28,60.8a17.3,17.3,0,0,0-.06,3.06L20,78.42a45.54,45.54,0,0,1-2.46-9.82,2,2,0,1,0-4,.54,49.38,49.38,0,0,0,17.24,31.29,2,2,0,0,0,2.57-3.06,45.63,45.63,0,0,1-6.08-6.18l25-14.45a17.54,17.54,0,0,0,2.77,1.65V107.5a45.53,45.53,0,0,1-9.74-2.78,2,2,0,1,0-1.52,3.7,49.39,49.39,0,0,0,35.72.72,2,2,0,1,0-1.37-3.76,45.63,45.63,0,0,1-8.39,2.18v-29A17.4,17.4,0,0,0,72.52,77L97.73,91.55a45.52,45.52,0,0,1-7.27,7,2,2,0,0,0,2.45,3.17,49.39,49.39,0,0,0,18.48-30.57A2,2,0,0,0,109.76,68.87Z"/></svg>