<svg id="Layer_1" data-name="Layer 1" xmlns="http://www.w3.org/2000/svg" viewBox="0 0 110.92 98.76"><defs><style>.cls-1{fill:#77bc1f;}</style></defs><title>BUMPLINE FEED</title><path class="cls-1" d="M102.41,7.21C96.87,5.55,82.82,0,55.46,0,27.91,0,14,5.55,8.5,7.21S0,13.31,0,14.79v3.48c0,3.6.18,9.71.74,11.18S4.07,38,4.07,38c2.4,5.36,7.39,6.27,14.23,8.86A24,24,0,0,0,23,47.94a3.17,3.17,0,0,1-.38-.78c-.86-2.67,3.05-5.18,10.72-6.75A119.7,119.7,0,0,1,55.46,38.1a119.7,119.7,0,0,1,22.09,2.31c7.67,1.57,11.58,4.08,10.72,6.75a3.17,3.17,0,0,1-.38.78,24,24,0,0,0,4.72-1.12c6.84-2.59,11.83-3.5,14.23-8.86,0,0,2.77-7,3.33-8.5s.74-7.58.74-11.18V14.79C110.92,13.31,108,8.87,102.41,7.21Z"/><path class="cls-1" d="M27.17,45.87v5a8.74,8.74,0,0,0,5.92,7.95c3.33,1.11,14.42,2,22.37,2s19-.86,22.37-2a8.74,8.74,0,0,0,5.92-7.95v-5s-6.56-4.25-28.28-4.25S27.17,45.87,27.17,45.87Z"/><polygon class="cls-1" points="57.75 64.71 52.75 64.71 52.75 87.97 49.02 87.97 55.25 98.76 61.48 87.97 57.75 87.97 57.75 64.71"/></svg>