<svg id="Layer_1" data-name="Layer 1" xmlns="http://www.w3.org/2000/svg" viewBox="0 0 119.78 107.75"><defs><style>.cls-1{fill:none;}.cls-2{fill:#77bc1f;}.cls-3{fill:#fff;}</style></defs><title>CARBONFIBRE</title><circle class="cls-1" cx="46.2" cy="51.46" r="46.2"/><rect class="cls-2" x="1.28" width="11" height="11"/><rect class="cls-3" x="12.03" width="11" height="11"/><rect class="cls-2" x="22.78" width="11" height="11"/><rect class="cls-3" x="33.53" width="11" height="11"/><rect class="cls-2" x="44.28" width="11" height="11"/><rect class="cls-3" x="55.03" width="11" height="11"/><rect class="cls-2" x="65.78" width="11" height="11"/><rect class="cls-3" x="76.53" width="11" height="11"/><rect class="cls-2" x="87.28" width="11" height="11"/><rect class="cls-3" x="98.03" width="11" height="11"/><rect class="cls-2" x="108.78" width="11" height="11"/><rect class="cls-3" x="1.28" y="10.75" width="11" height="11"/><rect class="cls-2" x="12.03" y="10.75" width="11" height="11"/><rect class="cls-3" x="22.78" y="10.75" width="11" height="11"/><rect class="cls-2" x="33.53" y="10.75" width="11" height="11"/><rect class="cls-3" x="44.28" y="10.75" width="11" height="11"/><rect class="cls-2" x="55.03" y="10.75" width="11" height="11"/><rect class="cls-3" x="65.78" y="10.75" width="11" height="11"/><rect class="cls-2" x="76.53" y="10.75" width="11" height="11"/><rect class="cls-3" x="87.28" y="10.75" width="11" height="11"/><rect class="cls-2" x="98.03" y="10.75" width="11" height="11"/><rect class="cls-3" x="108.78" y="10.75" width="11" height="11"/><rect class="cls-2" x="1.28" y="21.5" width="11" height="11"/><rect class="cls-3" x="12.03" y="21.5" width="11" height="11"/><rect class="cls-2" x="22.78" y="21.5" width="11" height="11"/><rect class="cls-3" x="33.53" y="21.5" width="11" height="11"/><rect class="cls-2" x="44.28" y="21.5" width="11" height="11"/><rect class="cls-3" x="55.03" y="21.5" width="11" height="11"/><rect class="cls-2" x="65.78" y="21.5" width="11" height="11"/><rect class="cls-3" x="76.53" y="21.5" width="11" height="11"/><rect class="cls-2" x="87.28" y="21.5" width="11" height="11"/><rect class="cls-3" x="98.03" y="21.5" width="11" height="11"/><rect class="cls-2" x="108.78" y="21.5" width="11" height="11"/><rect class="cls-3" x="1.28" y="32.25" width="11" height="11"/><rect class="cls-2" x="12.03" y="32.25" width="11" height="11"/><rect class="cls-3" x="22.78" y="32.25" width="11" height="11"/><rect class="cls-2" x="33.53" y="32.25" width="11" height="11"/><rect class="cls-3" x="44.28" y="32.25" width="11" height="11"/><rect class="cls-2" x="55.03" y="32.25" width="11" height="11"/><rect class="cls-3" x="65.78" y="32.25" width="11" height="11"/><rect class="cls-2" x="76.53" y="32.25" width="11" height="11"/><rect class="cls-3" x="87.28" y="32.25" width="11" height="11"/><rect class="cls-2" x="98.03" y="32.25" width="11" height="11"/><rect class="cls-3" x="108.78" y="32.25" width="11" height="11"/><rect class="cls-2" x="1.28" y="43" width="11" height="11"/><rect class="cls-3" x="12.03" y="43" width="11" height="11"/><rect class="cls-2" x="22.78" y="43" width="11" height="11"/><rect class="cls-3" x="33.53" y="43" width="11" height="11"/><rect class="cls-2" x="44.28" y="43" width="11" height="11"/><rect class="cls-3" x="55.03" y="43" width="11" height="11"/><rect class="cls-2" x="65.78" y="43" width="11" height="11"/><rect class="cls-3" x="76.53" y="43" width="11" height="11"/><rect class="cls-2" x="87.28" y="43" width="11" height="11"/><rect class="cls-3" x="98.03" y="43" width="11" height="11"/><rect class="cls-2" x="108.78" y="43" width="11" height="11"/><rect class="cls-3" x="1.28" y="53.75" width="11" height="11"/><rect class="cls-2" x="12.03" y="53.75" width="11" height="11"/><rect class="cls-3" x="22.78" y="53.75" width="11" height="11"/><rect class="cls-2" x="33.53" y="53.75" width="11" height="11"/><rect class="cls-3" x="44.28" y="53.75" width="11" height="11"/><rect class="cls-2" x="55.03" y="53.75" width="11" height="11"/><rect class="cls-3" x="65.78" y="53.75" width="11" height="11"/><rect class="cls-2" x="76.53" y="53.75" width="11" height="11"/><rect class="cls-3" x="87.28" y="53.75" width="11" height="11"/><rect class="cls-2" x="98.03" y="53.75" width="11" height="11"/><rect class="cls-3" x="108.78" y="53.75" width="11" height="11"/><rect class="cls-2" x="1.28" y="64.5" width="11" height="11"/><rect class="cls-3" x="12.03" y="64.5" width="11" height="11"/><rect class="cls-2" x="22.78" y="64.5" width="11" height="11"/><rect class="cls-3" x="33.53" y="64.5" width="11" height="11"/><rect class="cls-2" x="44.28" y="64.5" width="11" height="11"/><rect class="cls-3" x="55.03" y="64.5" width="11" height="11"/><rect class="cls-2" x="65.78" y="64.5" width="11" height="11"/><rect class="cls-3" x="76.53" y="64.5" width="11" height="11"/><rect class="cls-2" x="87.28" y="64.5" width="11" height="11"/><rect class="cls-3" x="98.03" y="64.5" width="11" height="11"/><rect class="cls-2" x="108.78" y="64.5" width="11" height="11"/><rect class="cls-3" x="1.28" y="75.25" width="11" height="11"/><rect class="cls-2" x="12.03" y="75.25" width="11" height="11"/><rect class="cls-3" x="22.78" y="75.25" width="11" height="11"/><rect class="cls-2" x="33.53" y="75.25" width="11" height="11"/><rect class="cls-3" x="44.28" y="75.25" width="11" height="11"/><rect class="cls-2" x="55.03" y="75.25" width="11" height="11"/><rect class="cls-3" x="65.78" y="75.25" width="11" height="11"/><rect class="cls-2" x="76.53" y="75.25" width="11" height="11"/><rect class="cls-3" x="87.28" y="75.25" width="11" height="11"/><rect class="cls-2" x="98.03" y="75.25" width="11" height="11"/><rect class="cls-3" x="108.78" y="75.25" width="11" height="11"/><rect class="cls-2" x="1.28" y="86" width="11" height="11"/><rect class="cls-3" x="12.03" y="86" width="11" height="11"/><rect class="cls-2" x="22.78" y="86" width="11" height="11"/><rect class="cls-3" x="33.53" y="86" width="11" height="11"/><rect class="cls-2" x="44.28" y="86" width="11" height="11"/><rect class="cls-3" x="55.03" y="86" width="11" height="11"/><rect class="cls-2" x="65.78" y="86" width="11" height="11"/><rect class="cls-3" x="76.53" y="86" width="11" height="11"/><rect class="cls-2" x="87.28" y="86" width="11" height="11"/><rect class="cls-3" x="98.03" y="86" width="11" height="11"/><rect class="cls-2" x="108.78" y="86" width="11" height="11"/><rect class="cls-3" x="1.28" y="96.75" width="11" height="11"/><rect class="cls-2" x="12.03" y="96.75" width="11" height="11"/><rect class="cls-3" x="22.78" y="96.75" width="11" height="11"/><rect class="cls-2" x="33.53" y="96.75" width="11" height="11"/><rect class="cls-3" x="44.28" y="96.75" width="11" height="11"/><rect class="cls-2" x="55.03" y="96.75" width="11" height="11"/><rect class="cls-3" x="65.78" y="96.75" width="11" height="11"/><rect class="cls-2" x="76.53" y="96.75" width="11" height="11"/><rect class="cls-3" x="87.28" y="96.75" width="11" height="11"/><rect class="cls-2" x="98.03" y="96.75" width="11" height="11"/><rect class="cls-3" x="108.78" y="96.75" width="11" height="11"/></svg>