<svg id="Layer_1" data-name="Layer 1" xmlns="http://www.w3.org/2000/svg" viewBox="0 0 130.28 110.99"><defs><style>.cls-1{fill:none;}.cls-2{fill:#77bc1f;}</style></defs><title>XXXMSCHAIN SPEED</title><circle class="cls-1" cx="68.71" cy="57.45" r="1.78" transform="translate(-16.76 30.67) rotate(-22.5)"/><circle class="cls-1" cx="46.36" cy="66.71" r="3.17" transform="translate(-22 22.82) rotate(-22.5)"/><circle class="cls-1" cx="83.37" cy="51.38" r="3.17" transform="translate(-13.32 35.82) rotate(-22.5)"/><path class="cls-2" d="M128.13,11.88c-10.1,4.28-18.83,8-24.93,10.68C75,34.87,45.39,50.37,40.31,54.19s-8.53,10-5.5,17.3,9.84,9.24,16.12,8.35S89.15,69,117.77,57.74c2.91-1.14,6.42-2.53,10.36-4.11ZM47.57,69.64a3.17,3.17,0,1,1,1.72-4.15A3.17,3.17,0,0,1,47.57,69.64ZM69.4,59.1a1.78,1.78,0,1,1,1-2.33A1.78,1.78,0,0,1,69.4,59.1Zm15.19-4.79a3.17,3.17,0,1,1,1.72-4.15A3.17,3.17,0,0,1,84.58,54.31Z"/><path class="cls-2" d="M49.34,90.26l-.63-5,2.93-.37c.87-.12,2.17-.39,3.84-.8l2.45-.6,1.2,4.9-2.45.6c-1.86.46-3.28.75-4.34.9Zm-3.89-.08L43,89.72A24.68,24.68,0,0,1,38,88.25l-2.33-1,1.94-4.66,2.33,1a19.64,19.64,0,0,0,3.94,1.16l2.48.46Zm16.77-2.67-1.42-4.84L63.23,82l4.42-1.32,2.41-.74,1.47,4.82-2.41.74c-1.57.48-3.07.93-4.48,1.34ZM32.27,85l-1.76-1.81a23.66,23.66,0,0,1-3.19-4.1L26,76.92l4.29-2.65,1.32,2.15a18.54,18.54,0,0,0,2.5,3.22l1.76,1.81Zm42.26-1.17L73,79l2.4-.77,4.4-1.43L82.18,76l1.58,4.79-2.4.79L76.93,83Zm12.19-4L85.09,75l2.39-.81,4.38-1.51,2.38-.83,1.65,4.76-2.38.83L89.1,79Zm12.12-4.19-1.7-4.75L99.5,70l4.36-1.57,2.37-.86L108,72.31l-2.37.86-4.39,1.58ZM24.52,73.2,24,70.73a23.52,23.52,0,0,1-.47-4.65q0-.26,0-.52L23.61,63l5,.11-.06,2.93A18.48,18.48,0,0,0,29,69.73l.5,2.47Zm86.37-2-1.78-4.72,2.36-.89L115.8,64l2.35-.9L120,67.78l-2.35.9-4.36,1.66Zm12-4.59L121,61.95l2.34-.93,4.31-1.71,2.34-.93L129.53,64h0l-4.32,1.72ZM29.13,61.06l-4.61-2,1-2.31a25,25,0,0,1,2.57-4.47l1.47-2,4.09,2.95-1.47,2a20,20,0,0,0-2.06,3.56Zm6.21-9.55-3-4.06,2-1.49c.94-.69,2.32-1.58,4.11-2.65L40.67,42l2.59,4.33-2.16,1.29c-1.65,1-2.9,1.79-3.71,2.38Zm10.52-6.63-2.41-4.43,2.21-1.21C47,38.54,48.34,37.8,49.79,37L52,35.85l2.36,4.46-2.23,1.18Q50,42.63,48.08,43.67Zm11.22-6-2.3-4.49L57,33.26l4.16-2.11L63.45,30l2.27,4.5-2.25,1.13-4.13,2.1Zm11.37-5.74-2.22-4.53,2.26-1.11,4.19-2L75,24.38l2.2,4.54L74.89,30l-4.17,2ZM79.92,27.6,77.77,23,80,22l4.22-2,2.29-1.06,2.13,4.57-2.29,1.06-4.19,2Zm11.55-5.38-2.08-4.6,2.3-1,4.26-1.91,2.3-1,2,4.61-2.3,1-4.23,1.89ZM103.11,17l-2-4.63,2.32-1,4.27-1.84,2.32-1,2,4.64-2.32,1L105.42,16Zm11.73-5-2-4.64,8.92-3.79,2,4.64Zm11.76-5-2-4.64L130.28,0l-.47,5.68Z"/><path class="cls-2" d="M71.72,2.27a59.09,59.09,0,0,0-21-.28,60,60,0,0,0-20,7.11A60.9,60.9,0,0,0,14.24,22.95a56.32,56.32,0,0,0-6.16,9l-1.33,2.4c-.44.8-.77,1.65-1.16,2.48L4.47,39.31,3.54,41.9A62.46,62.46,0,0,0,0,63.66a64.14,64.14,0,0,0,14.45,39l-3.75,4.59L33.94,111,25.59,89l-3.65,4.47A53.15,53.15,0,0,1,10.63,44.13l.65-2.34.84-2.28c.29-.75.52-1.54.87-2.27L14,35a50.05,50.05,0,0,1,4.93-8.45A55.69,55.69,0,0,1,33.06,12.89a56.27,56.27,0,0,1,18.27-8A56.86,56.86,0,0,1,71.49,3.73,58.54,58.54,0,0,1,91,9.79,59.29,59.29,0,0,0,71.72,2.27Z"/></svg>