<svg id="Layer_1" data-name="Layer 1" xmlns="http://www.w3.org/2000/svg" viewBox="0 0 120.68 94.19"><defs><style>.cls-1{fill:#77bc1f;}</style></defs><title>CHAINBRAKE</title><path class="cls-1" d="M97.09,94.19a2.75,2.75,0,0,1-1.76-4.87,54.84,54.84,0,0,0,0-84.45A2.75,2.75,0,1,1,98.84.63a60.34,60.34,0,0,1,0,92.92A2.74,2.74,0,0,1,97.09,94.19Z"/><path class="cls-1" d="M23.59,94.19a2.74,2.74,0,0,1-1.75-.63,60.34,60.34,0,0,1,0-92.92,2.75,2.75,0,0,1,3.51,4.23,54.84,54.84,0,0,0,0,84.45,2.75,2.75,0,0,1-1.76,4.87Z"/><path class="cls-1" d="M38.83,54.32a3.75,3.75,0,1,0,4.91,2A3.73,3.73,0,0,0,38.83,54.32Z"/><path class="cls-1" d="M56,49.1a2.85,2.85,0,1,0,1.54,1.54A2.83,2.83,0,0,0,56,49.1Z"/><path class="cls-1" d="M86.31,50.36C67,57.92,46.69,64.18,43,64.7c-2.44.34-6.82.22-8.74-4.43s1.08-7.84,3-9.32c3-2.23,21.75-12.16,40.74-20.47,4.83-2.11,12.26-5.28,20.79-8.88a46.2,46.2,0,1,0,7.67,25.49,46.73,46.73,0,0,0-.24-4.76C98.13,45.65,91,48.51,86.31,50.36Zm7-35,1.28,3L88.8,20.85l-1.29-3Zm-7.56,3.2,1.3,3-5.78,2.47L80,21ZM74,23.63l4.23-1.84,1.31,3L73.68,27.3l-1.22-3.06ZM66.43,27l2.72-1.24,1.5-.68,1.36,3-1.5.68L67.81,30l-1.5.69-1.38-3ZM59,30.5l2.7-1.28,1.49-.7,1.41,3-1.49.71-2.68,1.28-1.49.71-1.43-3ZM51.61,34.1l2.68-1.32,1.48-.73,1.45,3-1.48.73-2.66,1.32-1.48.74-1.47-3Zm-7.33,3.73,2.66-1.37,1.47-.75,1.5,2.94-1.47.75-2.64,1.36-1.46.76L42.82,38.6ZM37,41.76c.8-.46,1.68-.95,2.63-1.46l1.45-.79,1.58,2.9-1.45.79c-.93.51-1.79,1-2.58,1.43l-1.43.82-1.63-2.87Zm-7,5a19.53,19.53,0,0,1,2.36-2.09l1.06,1.27,1,1.32a16.46,16.46,0,0,0-2,1.78l-1.14,1.19L28.84,48Zm-4.22,8a15,15,0,0,1,1-3.18L27.42,50l3,1.33-.66,1.51A11.73,11.73,0,0,0,29,55.35L28.68,57l-3.24-.63ZM27.44,65.2l-.72-1.71a16.26,16.26,0,0,1-.91-3l-.33-1.62,3.23-.66L29,59.87a13,13,0,0,0,.72,2.35l.72,1.7ZM34,71.5l-1.4-.88A14.48,14.48,0,0,1,30,68.51l-1.15-1.18L31.19,65l1.15,1.18a11.18,11.18,0,0,0,2,1.63l1.39.88ZM42.92,73H41.27A18.1,18.1,0,0,1,38,72.7l-1.62-.3.6-3.25,1.62.3a14.73,14.73,0,0,0,2.66.24h1.65Zm6.82-1.55c-1.09.3-2.08.56-2.93.77l-1.6.39-.79-3.21L46,69c.83-.2,1.78-.45,2.83-.75l1.59-.44L51.33,71Zm7.9-2.37L54.78,70l-1.58.48-1-3.16,1.58-.48,2.83-.88,1.57-.5,1,3.15Zm7.82-2.55-2.84.94L61.06,68l-1-3.14,1.57-.51,2.82-.94L66,62.87,67,66Zm7.77-2.68-2.82,1-1.56.54-1.08-3.12,1.56-.54,2.8-1,1.56-.55,1.1,3.11ZM81,61l-2.81,1-1.55.57-1.13-3.1L77,59l2.79-1,1.55-.57,1.15,3.09Zm7.34-2.8-2.45.95-1.54.59-1.18-3.08,1.54-.59,2.43-.94L89,54.45l1.2,3.08ZM92,56.8l-1.23-3.06,5.83-2.34,1.23,3.06Zm6.38-6.11,5.82-2.36,1.24,3.06-5.82,2.36Z"/><path class="cls-1" d="M65.88,44.3A3.75,3.75,0,0,0,61,49.21a3.75,3.75,0,1,0,4.91-4.91Z"/></svg>