<svg id="Layer_1" data-name="Layer 1" xmlns="http://www.w3.org/2000/svg" viewBox="0 0 120.63 120.6"><defs><style>.cls-1{fill:#77bc1f;}</style></defs><title>XXCMCUTTINGWIDTH</title><path class="cls-1" d="M120.57,57.66A60.31,60.31,0,0,0,15.85,19.54,60.32,60.32,0,0,0,60.25,120.6q1.34,0,2.69-.06a60.32,60.32,0,0,0,57.63-62.89ZM99.62,96.3a53.31,53.31,0,1,1,14-38.34A53.38,53.38,0,0,1,99.62,96.3Z"/><polygon class="cls-1" points="98.83 74.11 23.68 74.26 23.68 70.52 12.9 76.78 23.7 82.99 23.7 79.26 98.84 79.11 98.85 82.84 109.63 76.59 98.83 70.38 98.83 74.11"/><path class="cls-1" d="M96.41,54l-28.61.17a9.67,9.67,0,0,0-15,.09l-43.24.26s9.38,12.09,14.69,12.06l28.61-.17a9.67,9.67,0,0,0,15-.09l43.24-.26S101.73,54,96.41,54Z"/></svg>