<svg id="Layer_1" data-name="Layer 1" xmlns="http://www.w3.org/2000/svg" viewBox="0 0 119.02 117.63"><defs><style>.cls-1{fill:#77bc1f;}</style></defs><title>20CM CUTTINGBLADE</title><path class="cls-1" d="M98.59,88.75c.41-1.67,1.06-4.08,1.86-7l9.3,10.64-3.94,3.44L119,100.37l-2.7-13.7-3.94,3.44L101.57,77.76c4.74-16.77,12.64-43.19,12.74-43.53l.45-1.51-1.53-.38c-6.85-1.69-16.19-3.5-21.85-3.5A73.73,73.73,0,0,0,47.3,43.44L10.91,0H3.09L42.62,47.2A74.67,74.67,0,0,0,23.68,72.77a19.92,19.92,0,1,0,11.94,31.8H79.27a20.65,20.65,0,0,0,4.81-.78l12.08,13.85s2.44-.64,6.73-4.38,5.25-6.07,5.25-6.07L96.62,94A22.77,22.77,0,0,0,98.59,88.75ZM32.87,101.57a16.63,16.63,0,0,1-1.2,1.47l-.18.2a15.47,15.47,0,0,1-1.4,1.33,16,16,0,1,1-8-28q.76.1,1.49.28h0q.73.17,1.44.41a15.88,15.88,0,0,1,7.85,24.31ZM65.64,82.65,76.51,95.1A11.48,11.48,0,0,1,65.59,83.66C65.59,83.32,65.62,83,65.64,82.65Zm22.85,2L77.63,72.21A11.48,11.48,0,0,1,88.55,83.66C88.55,84,88.52,84.33,88.49,84.66ZM80.2,87.25a4.77,4.77,0,1,1,.46-6.73A4.77,4.77,0,0,1,80.2,87.25ZM95.67,88a20.63,20.63,0,0,1-1.19,3.49l-3.89-4.46A13.91,13.91,0,0,0,75.52,69.79L58,49.68s-2.42.62-6.73,4.38S46,60.14,46,60.14L63.55,80.25A13.91,13.91,0,0,0,78.62,97.52l3.27,3.75a15.6,15.6,0,0,1-2.62.3H37.56a19.87,19.87,0,0,0-11-28,71.3,71.3,0,0,1,64.8-41.73c5,0,13.12,1.51,19.6,3-1.68,5.63-7.66,25.74-11.77,40.18L78.47,51.34l3.94-3.44L69.2,43.39l2.7,13.69,3.94-3.44L98.09,79.08C97,82.84,96.18,86,95.67,88Z"/><path class="cls-1" d="M19.92,83.38a8.94,8.94,0,1,0,8.94,8.94A9,9,0,0,0,19.92,83.38Z"/></svg>