<svg id="Layer_1" data-name="Layer 1" xmlns="http://www.w3.org/2000/svg" viewBox="0 0 144.95 88"><defs><style>.cls-1{fill:#77bc1f;}</style></defs><title>XXCMCUTTINGCAPACITY</title><path class="cls-1" d="M138.1,38.39a6.85,6.85,0,0,0-6.85,6.85v1.61L125,29.49H111.8V3.16a3.16,3.16,0,1,0-6.33,0V29.49H40.1V3.16a3.16,3.16,0,1,0-6.33,0V29.49H20L13.7,46.85V45.24a6.85,6.85,0,0,0-13.7,0V81.15a6.85,6.85,0,1,0,13.7,0V65.76H131.25V81.15a6.85,6.85,0,1,0,13.7,0V45.24A6.85,6.85,0,0,0,138.1,38.39Z"/><polygon class="cls-1" points="116.97 73.2 28.66 73.2 28.66 68.48 15.01 76.37 28.66 84.25 28.66 79.53 116.97 79.53 116.97 84.25 130.63 76.37 116.97 68.48 116.97 73.2"/></svg>