<svg id="Layer_1" data-name="Layer 1" xmlns="http://www.w3.org/2000/svg" viewBox="0 0 138.8 123.17"><defs><style>.cls-1{fill:#a4d16c;}.cls-2{fill:#77bc1f;}</style></defs><title>DUAL ACTIONDUALKNIFEEDGE</title><path class="cls-1" d="M60,53.92,64.5,52,69,50a3.61,3.61,0,0,0,2-2.7L57.85,32.6l-3.79,1.64,1.69,18.61C57.13,54.05,58.67,54.51,60,53.92Z"/><path class="cls-1" d="M30.62,66.67l4.47-1.94,4.47-1.94a3.61,3.61,0,0,0,2-2.7L28.43,45.35,24.64,47,26.33,65.6C27.71,66.8,29.26,67.26,30.62,66.67Z"/><path class="cls-1" d="M4.37,78l.41-.18.89-.38,4.47-1.94a3.61,3.61,0,0,0,2-2.7L0,59.2V79.66a3.11,3.11,0,0,0,1.2-.24Z"/><path class="cls-1" d="M91.7,63.23l-4.47,1.94-4.47,1.94c-1.36.59-2.08,2-2.15,3.86L93,84.92l3.79-1.64L95,63.62A3.61,3.61,0,0,0,91.7,63.23Z"/><path class="cls-1" d="M62.28,76l-4.47,1.94-4.47,1.94c-1.36.59-2.08,2-2.15,3.86l12.43,14L67.4,96,65.62,76.37A3.61,3.61,0,0,0,62.28,76Z"/><path class="cls-1" d="M3.45,101.48,0,103V117.8l4.79,5.38,3.79-1.64L6.79,101.87A3.61,3.61,0,0,0,3.45,101.48Z"/><path class="cls-1" d="M32.87,88.73,28.4,90.67l-4.47,1.94c-1.36.59-2.08,2-2.15,3.86l12.43,14L38,108.78,36.21,89.12A3.61,3.61,0,0,0,32.87,88.73Z"/><path class="cls-1" d="M121.11,50.48l-4.47,1.94-4.47,1.94c-1.36.59-2.08,2-2.15,3.86l12.43,14,3.79-1.64-1.78-19.66A3.61,3.61,0,0,0,121.11,50.48Z"/><path class="cls-1" d="M118.86,28.42l4.47-1.94,4.47-1.94a3.61,3.61,0,0,0,2-2.7L116.67,7.1l-3.79,1.64,1.69,18.61C116,28.55,117.5,29,118.86,28.42Z"/><path class="cls-1" d="M89.45,41.17l4.47-1.94,4.47-1.94a3.61,3.61,0,0,0,2-2.7L87.26,19.85l-3.79,1.64L85.16,40.1C86.54,41.3,88.08,41.76,89.45,41.17Z"/><path class="cls-2" d="M138.8,7.31c-1.47-2.27-2.92-4.52-3.65-5.66-1.28-2-1.47-1.92-3.34-1.11L128,2.18c-1.87.81-2.07.89-1.48,3.19.66,2.57,2.55,10.13,3.19,13a8,8,0,0,1,.07,3.45,3.61,3.61,0,0,1-2,2.7l-4.47,1.94-4.47,1.94c-1.36.59-2.91.14-4.29-1.07a9.09,9.09,0,0,1-1.52-1.72c-1.67-2.44-5.89-9-7.32-11.23-1.28-2-1.47-1.92-3.34-1.11l-3.79,1.64c-1.87.81-2.07.89-1.48,3.19.66,2.57,2.55,10.13,3.19,13a8,8,0,0,1,.07,3.45,3.61,3.61,0,0,1-2,2.7l-4.47,1.94-4.47,1.94c-1.36.59-2.91.14-4.29-1.07a9.09,9.09,0,0,1-1.52-1.72c-1.67-2.44-5.89-9-7.32-11.23C75,25.14,74.85,25.23,73,26l-3.79,1.64c-1.87.81-2.07.89-1.48,3.19.66,2.57,2.55,10.13,3.19,13A8,8,0,0,1,71,47.34,3.61,3.61,0,0,1,69,50L64.5,52,60,53.92c-1.36.59-2.91.14-4.29-1.07a9.09,9.09,0,0,1-1.52-1.72c-1.67-2.44-5.89-9-7.32-11.23-1.28-2-1.47-1.92-3.34-1.11l-3.79,1.64c-1.87.81-2.07.89-1.48,3.19.66,2.57,2.55,10.13,3.19,13a8,8,0,0,1,.07,3.45,3.61,3.61,0,0,1-2,2.7l-4.47,1.94-4.47,1.94c-1.36.59-2.91.14-4.29-1.07a9.09,9.09,0,0,1-1.52-1.72c-1.67-2.44-5.89-9-7.32-11.23-1.28-2-1.47-1.92-3.34-1.11l-3.79,1.64c-1.87.81-2.07.89-1.48,3.19.66,2.57,2.55,10.13,3.19,13a8,8,0,0,1,.07,3.45,3.61,3.61,0,0,1-2,2.7L5.68,77.48l-.89.38L4.37,78,1.2,79.42a3.11,3.11,0,0,1-1.2.24V103l3.45-1.5a3.61,3.61,0,0,1,3.34.38,8,8,0,0,1,2.47,2.41c1.67,2.44,5.89,9,7.32,11.23,1.28,2,1.47,1.92,3.34,1.11L23.71,115c1.87-.81,2.07-.89,1.48-3.19-.66-2.57-2.55-10.13-3.19-13a9.09,9.09,0,0,1-.22-2.29c.06-1.83.79-3.27,2.15-3.86l4.47-1.94,4.47-1.94a3.61,3.61,0,0,1,3.34.38,8,8,0,0,1,2.47,2.41c1.67,2.44,5.89,9,7.32,11.23,1.28,2,1.47,1.92,3.34,1.11l3.79-1.64c1.87-.81,2.07-.89,1.48-3.19C53.94,96.46,52,88.9,51.41,86a9.09,9.09,0,0,1-.22-2.29c.06-1.83.79-3.27,2.15-3.86l4.47-1.94L62.28,76a3.61,3.61,0,0,1,3.34.38,8,8,0,0,1,2.47,2.41c1.67,2.44,5.89,9,7.32,11.23,1.28,2,1.47,1.92,3.34,1.11l3.79-1.64c1.87-.81,2.07-.89,1.48-3.19-.66-2.57-2.55-10.13-3.19-13A9.09,9.09,0,0,1,80.6,71c.06-1.83.79-3.27,2.15-3.86l4.47-1.94,4.47-1.94a3.61,3.61,0,0,1,3.34.38A8,8,0,0,1,97.5,66c1.67,2.44,5.89,9,7.32,11.23,1.28,2,1.47,1.92,3.34,1.11L112,76.72c1.87-.81,2.07-.89,1.48-3.19-.66-2.57-2.55-10.13-3.19-13a9.09,9.09,0,0,1-.22-2.29c.06-1.83.79-3.27,2.15-3.86l4.47-1.94,4.47-1.94a3.61,3.61,0,0,1,3.34.38,8,8,0,0,1,2.47,2.41c1.67,2.44,5.89,9,7.32,11.23,1.28,2,1.47,1.92,3.34,1.11l1.22-.53Z"/></svg>