<svg id="Layer_1" data-name="Layer 1" xmlns="http://www.w3.org/2000/svg" viewBox="0 0 92.01 125.69"><defs><style>.cls-1{fill:#77bc1f;}</style></defs><title>LASER CUTDIAMONDGROUND</title><polygon class="cls-1" points="0.48 72.22 40.91 122.41 22.57 72.22 0.48 72.22"/><polygon class="cls-1" points="26.17 72.22 45.71 125.69 65.63 72.22 26.17 72.22"/><polygon class="cls-1" points="50.06 123.7 91.53 72.22 69.24 72.22 50.06 123.7"/><polygon class="cls-1" points="75.71 45.16 49.56 45.16 67.49 67.22 75.71 45.16"/><polygon class="cls-1" points="46.01 46.15 27.57 68.84 64.44 68.84 46.01 46.15"/><polygon class="cls-1" points="24.4 67.37 42.45 45.16 16.28 45.16 24.4 67.37"/><polygon class="cls-1" points="13.46 47.3 0 68.84 21.33 68.84 13.46 47.3"/><polygon class="cls-1" points="92.01 68.84 78.53 47.27 70.5 68.84 92.01 68.84"/><path class="cls-1" d="M15.53,40.2H75.41a.42.42,0,0,0,0-.84L58.5,36.6l16-5.28a.52.52,0,0,0,.33-.5.41.41,0,0,0-.5-.33L55.06,33.16l13.82-7.62A.48.48,0,0,0,69,25a.43.43,0,0,0-.59-.25l-19.51,7,7.2-11.56a.52.52,0,0,0-.08-.59.41.41,0,0,0-.59.08l-8.71,9.88V0H43.34V29.39l-8-9.88a.42.42,0,1,0-.67.5l6.28,11.56-18.59-7a.43.43,0,0,0-.59.25.48.48,0,0,0,.17.59l13.82,7.62L16.46,30.4a.46.46,0,0,0-.5.33c-.08.25.08.42.34.5l16,5.28L15.37,39.28a.37.37,0,0,0-.34.5A.53.53,0,0,0,15.53,40.2Z"/></svg>