<svg id="Layer_1" data-name="Layer 1" xmlns="http://www.w3.org/2000/svg" viewBox="0 0 60.9 113.72"><defs><style>.cls-1{fill:#77bc1f;}</style></defs><title>LINEDIAMETER</title><path class="cls-1" d="M23,113.72c-12.69,0-23-15.36-23-34.24S10.32,45.25,23,45.25,46,60.61,46,79.49,35.69,113.72,23,113.72Zm0-65.91C11.74,47.82,2.57,62,2.57,79.49S11.74,111.15,23,111.15,43.45,96.95,43.45,79.49,34.28,47.82,23,47.82Z"/><polygon class="cls-1" points="41.54 78.68 31.22 72.72 31.22 76.29 14.81 76.29 14.81 72.72 4.49 78.68 14.81 84.64 14.81 81.07 31.22 81.07 31.22 84.64 41.54 78.68"/><path class="cls-1" d="M48.88,43.47a42.35,42.35,0,0,1,4.9,6.12A65.85,65.85,0,0,1,58.88,59a31.4,31.4,0,0,0,1.76-15.26,33.38,33.38,0,0,0-1.42-6.3,41.33,41.33,0,0,0-3.15-5.77,21.39,21.39,0,0,0-7.29-7,22.08,22.08,0,0,0-9.87-3,22.85,22.85,0,0,1,14.94,4.92,28.71,28.71,0,0,1,3.89,3.8c.15.17.28.36.43.53-.08-1.94-.24-3.84-.49-5.69a16.11,16.11,0,0,0-1.79-7.59,22.44,22.44,0,0,0-4.11-6.8c-.39-.24-.79-.48-1.2-.7a11.94,11.94,0,0,0-5.43-1.51A12.25,12.25,0,0,0,39.5,9.8,12.53,12.53,0,0,1,45.13,8.1a13,13,0,0,1,4.38.5A27.49,27.49,0,0,0,44.23,5,7.29,7.29,0,0,0,41.4,2.86a7.11,7.11,0,0,0-4-.55l-.08,0A5.12,5.12,0,0,0,34.24,4.4a5.22,5.22,0,0,1,1.65-1.81,5,5,0,0,1,.87-.47C26.92-.62,15.13-.4,4.87,1.07c0,0,22-2.38,29,4.62h0a5.46,5.46,0,0,0,2.66,4.71C33.66,13,32.8,17.37,34,21.84c-5.79,2.56-10,8.71-11.55,16.35C13.91,43.55,6.55,54.12,3.18,67.34c-5.5,21.58,1.7,42,16.08,45.71s30.49-10.86,36-32.45A59.2,59.2,0,0,0,57,69.07c-.28-1.37-.58-2.73-.92-4.09A69,69,0,0,0,51.18,51.1,31.14,31.14,0,0,0,42,39.8a31.81,31.81,0,0,0-13.58-6,32.91,32.91,0,0,1,20.48,9.7Zm-19.82,6.3.24.12.65.33.32.18.56.33.33.21.53.37.32.23.56.44.26.21q.4.33.79.69l.11.11.66.64.26.28.49.53.29.33.45.53.28.35.44.58.25.34.52.76.14.2q.32.48.62,1l.2.34.4.7L39,60l.35.67.22.46.32.69.21.45c.11.26.22.52.33.79l.16.39q.23.59.45,1.19l.11.31c.11.31.21.62.31.93l.15.49c.08.26.16.52.24.79l.15.54q.11.39.2.79l.13.54c.07.28.13.56.19.84l.11.51c.07.37.14.74.21,1.11l0,.26a46.53,46.53,0,0,1,.64,7.75c0,.65,0,1.29,0,1.94,0,.18,0,.36,0,.54q0,.74-.1,1.46c0,.16,0,.32,0,.48q-.18,1.92-.51,3.76l-.06.33q-.15.82-.34,1.63l0,.2q-.44,1.87-1,3.62l0,.12q-.29.87-.61,1.7C37.1,104.44,30.53,110.58,23,110.58c-11.32,0-20.5-13.92-20.5-31.1,0-9.59,2.86-18.16,7.36-23.87L10.4,55l.19-.23.5-.56.25-.27.49-.5.28-.27.49-.46.3-.26.5-.42.32-.25.5-.38.33-.23q.47-.32,1-.61l.39-.23.43-.23.47-.24.43-.2.49-.21.43-.16.51-.18L19.1,49l.54-.15.41-.1.58-.11.39-.07.66-.08.33,0c.33,0,.66,0,1,0s.66,0,1,0l.31,0,.66.08.36.06.61.12.36.08.61.17.33.1.71.25.21.08Q28.62,49.56,29.06,49.77Z"/></svg>