<svg id="Layer_1" data-name="Layer 1" xmlns="http://www.w3.org/2000/svg" viewBox="0 0 95.77 93.63"><defs><style>.cls-1{fill:#77bc1f;}</style></defs><title>QUICKCHANGE</title><path class="cls-1" d="M95.7,45H59.24V57.18H75L56,75.57a25.72,25.72,0,0,1-16.85,6.09,26.16,26.16,0,0,1-18.8-7.89l-8.54,8.39A38,38,0,0,0,39.13,93.63a37.54,37.54,0,0,0,24.78-9.09l19.65-19v16H95.7V57.18h.07V45Z"/><path class="cls-1" d="M36.53,48.58V36.45H20.78l19-18.39A25.72,25.72,0,0,1,56.64,12a26.16,26.16,0,0,1,18.8,7.89L84,11.47A38,38,0,0,0,56.64,0,37.54,37.54,0,0,0,31.86,9.09l-19.65,19V12H.07V36.45H0V48.58H36.53Z"/></svg>