<svg id="Layer_1" data-name="Layer 1" xmlns="http://www.w3.org/2000/svg" viewBox="0 0 106.14 72.74"><defs><style>.cls-1{fill:#fff;}.cls-2{fill:#77bc1f;}</style></defs><title>QUICKADJUSTHANDLE</title><path class="cls-1" d="M33.32,52.08a3.55,3.55,0,0,1-1.8-.48A3.7,3.7,0,0,1,29.76,49l-.71-4a4.29,4.29,0,0,1,3.48-5l37.64-6.63c2.36-.41,4.45.26,4.85,1.58h0c.41,1.34-1,3-3.3,3.77L34.67,51.84A4,4,0,0,1,33.32,52.08ZM71.5,34.52a6.38,6.38,0,0,0-1.11.1L32.75,41.25a3,3,0,0,0-2.44,3.48l.71,4a2.35,2.35,0,0,0,3.22,1.88L71.29,37.5c1.72-.61,2.64-1.72,2.5-2.19S72.77,34.52,71.5,34.52Z"/><path class="cls-2" d="M71.5,34.52a6.38,6.38,0,0,0-1.11.1L32.75,41.25a3,3,0,0,0-2.44,3.48l.71,4a2.35,2.35,0,0,0,3.22,1.88l26.92-9.54h0L71.29,37.5c1.72-.61,2.64-1.72,2.5-2.19S72.77,34.52,71.5,34.52Z"/><path class="cls-2" d="M58.74,23.11l-1.55,3.08,9.34-.54-5.14-7.82L59.8,21A29.33,29.33,0,0,0,26.24,32.12l1.93,1.34A27,27,0,0,1,58.74,23.11Z"/><path class="cls-2" d="M106.07,57.34l-4-42.87A16.28,16.28,0,0,0,86.18,0H24A17.18,17.18,0,0,0,7.46,14L.2,57.07a13.5,13.5,0,0,0,2.87,11,13.5,13.5,0,0,0,10.38,4.66h5.62A17.83,17.83,0,0,0,36,59l.45-2.12a8,8,0,0,1,7.14-5.79H64.2a7.27,7.27,0,0,1,6.73,5.68l.34,2a17.22,17.22,0,0,0,16.59,14H92a13.94,13.94,0,0,0,14-15.4ZM95.12,61.45A4.09,4.09,0,0,1,92,62.74h-4.2a7.27,7.27,0,0,1-6.73-5.68l-.34-2a17.23,17.23,0,0,0-15.87-14L34.67,51.84a4,4,0,0,1-1.35.24,3.55,3.55,0,0,1-1.8-.48A3.7,3.7,0,0,1,29.76,49l-.11-.64a16.59,16.59,0,0,0-3,6.49l-.45,2.12a8,8,0,0,1-7.14,5.79H13.45a3.49,3.49,0,0,1-2.74-1.12,3.49,3.49,0,0,1-.65-2.89l7.26-43.06A7.24,7.24,0,0,1,24,10H86.18a6.24,6.24,0,0,1,5.93,5.4l4,42.87A4.09,4.09,0,0,1,95.12,61.45Z"/></svg>