<svg id="Layer_1" data-name="Layer 1" xmlns="http://www.w3.org/2000/svg" viewBox="0 0 100.38 108.32"><defs><style>.cls-1{fill:#77bc1f;}</style></defs><title>RAPIDRELOAD HEAD</title><path class="cls-1" d="M36.8,9.95l.83,5.85L50.19,6,35.39,0l.84,5.94A50,50,0,0,0,0,54.16H4A46,46,0,0,1,36.8,9.95Z"/><path class="cls-1" d="M100.38,54.16h-4a46,46,0,0,1-32.8,44.21l-.83-5.85-12.57,9.83,14.79,6-.84-5.93A50,50,0,0,0,100.38,54.16Z"/><path class="cls-1" d="M84.29,54.16A33.94,33.94,0,0,0,77.7,34,148.53,148.53,0,0,0,99,6.33L97.72,5.6A146.94,146.94,0,0,1,76.78,32.82,34.1,34.1,0,0,0,22.68,74.3,148.54,148.54,0,0,0,1.34,102l1.31.73A147,147,0,0,1,23.6,75.5,34.1,34.1,0,0,0,84.29,54.16Zm-52.78,0A18.68,18.68,0,1,1,50.19,72.84,18.7,18.7,0,0,1,31.51,54.16Z"/><path class="cls-1" d="M50.19,37.48A16.68,16.68,0,1,0,66.87,54.16,16.7,16.7,0,0,0,50.19,37.48Z"/></svg>