<svg id="Layer_1" data-name="Layer 1" xmlns="http://www.w3.org/2000/svg" viewBox="0 0 105.5 103.97"><defs><style>.cls-1{fill:#77bc1f;}.cls-2{fill:#fff;opacity:0.75;}</style></defs><title>REVERSIBLE CUTTINGBLADE</title><path class="cls-1" d="M98.88,75.73,79.64,61.38A43.05,43.05,0,0,1,68.19,50.06,31.65,31.65,0,0,1,63.3,35.34L61.24,11.64,54.86,0h-4.3L44.17,11.64l-2.25,23.9a29,29,0,0,1-4.61,14.52A43.05,43.05,0,0,1,25.87,61.38L6.62,75.73,0,87.24l2.24,3.68,13.26-.6L37.08,79.81s4.42-3,15.67-3,15.67,3,15.67,3L90,90.31l13.26.6,2.24-3.68Zm-46.13-10a7.55,7.55,0,1,1,7.55-7.55A7.55,7.55,0,0,1,52.76,65.69Z"/><path class="cls-2" d="M.78,88.52,8,76.73,31.06,59.88l.41-3a42,42,0,0,1-5.6,4.48L6.62,75.73,0,87.24Z"/><path class="cls-2" d="M40.24,78.45l-2.85-.73L15.1,88.47l-13.77,1,.9,1.49,13.26-.6L37.08,79.81A13.78,13.78,0,0,1,40.24,78.45Z"/><path class="cls-2" d="M104.72,88.52,97.54,76.73,74.45,59.88l-.41-3a42,42,0,0,0,5.6,4.48L98.88,75.73l6.62,11.5Z"/><path class="cls-2" d="M65.27,78.45l2.85-.73L90.4,88.47l13.77,1-.9,1.49L90,90.31,68.42,79.81A13.78,13.78,0,0,0,65.27,78.45Z"/><path class="cls-2" d="M52.26,0,45.63,12.38l-2,24.73L41.78,38a19.62,19.62,0,0,0,.2-2.45l2.25-23.89L50.61,0Z"/><path class="cls-2" d="M63.63,37.94l-1.7-.83-2-24.73L53.25,0h1.65l6.38,11.64,2.06,23.7S63.39,36.33,63.63,37.94Z"/><path class="cls-1" d="M32.9,20.22,21.57,21l2.36,3.49A44.09,44.09,0,0,0,9.17,50.29L4.95,50,10,60.2l6.27-9.48-4.11-.25A41.1,41.1,0,0,1,25.62,27l2.32,3.42Z"/><path class="cls-1" d="M96.34,50.31A44.08,44.08,0,0,0,81.6,24.53L84,21l-11.34-.78,5,10.21L79.92,27A41.09,41.09,0,0,1,93.33,50.5l-4.12.26,6.3,9.46,5-10.18Z"/><path class="cls-1" d="M65.53,97.41a41.09,41.09,0,0,1-27-.52l1.89-3.68L29,93.77l6.16,9.56,1.93-3.75a43.92,43.92,0,0,0,29.69.57l1.8,3.83,6.48-9.34-11.33-.95Z"/></svg>