<svg id="Layer_1" data-name="Layer 1" xmlns="http://www.w3.org/2000/svg" viewBox="0 0 103.18 122.77"><defs><style>.cls-1{fill:#e0eec9;}.cls-2{fill:#77bc1f;}</style></defs><title>ROTATINGREARHANDLE</title><path class="cls-1" d="M84.5,54.75A5.88,5.88,0,0,0,78,53.37L64.28,59.64a5,5,0,0,1-6-1.71L38.52,28.35a5,5,0,0,0-6-1.71L10.75,36.56a5,5,0,0,0-2.66,5.67l9.39,34.29a5,5,0,0,1-2.66,5.67L3.22,87.48A5.88,5.88,0,0,0,0,93.26l3.69,26.79A2.9,2.9,0,0,0,8,122.43l93.25-42.52a2.9,2.9,0,0,0,1-4.8Z"/><path class="cls-2" d="M98.48,34.12a43,43,0,0,0-6-14.16A43.89,43.89,0,0,0,81.75,8.69a44.81,44.81,0,0,0-30-8.55A46.43,46.43,0,0,0,24.22,12.26L20.75,9.75,19,26.69l15.54-7-3.39-2.44A39,39,0,0,1,52.47,6.55a39.42,39.42,0,0,1,26.85,5.7A39.81,39.81,0,0,1,96.4,34.67a41.87,41.87,0,0,1-1.79,28.9,42.87,42.87,0,0,0,3.87-29.45Z"/><path class="cls-2" d="M86.7,84.55l-3-32.46a13.16,13.16,0,0,0-13-11.84H23.6A14,14,0,0,0,10.1,51.67L4.6,84.28a10.95,10.95,0,0,0,11,13H25a20.24,20.24,0,0,1,.4-9.53H15.6a1.72,1.72,0,0,1-1.33-.5A1.72,1.72,0,0,1,14,85.86l5.49-32.6a4.5,4.5,0,0,1,4.11-3.48H70.66A3.75,3.75,0,0,1,74.18,53l3,32.46a2,2,0,0,1-2.11,2.31H65.28a20.24,20.24,0,0,1,.4,9.53h9.43A11.53,11.53,0,0,0,86.7,84.55Z"/><path class="cls-2" d="M45.35,74.83A18.51,18.51,0,1,0,63.87,93.34,18.53,18.53,0,0,0,45.35,74.83Z"/></svg>