<svg id="Layer_1" data-name="Layer 1" xmlns="http://www.w3.org/2000/svg" viewBox="0 0 127.67 97.72"><defs><style>.cls-1{fill:#77bc1f;}.cls-2{fill:none;}</style></defs><title>SELFPROPELLED</title><polygon class="cls-1" points="103.92 12.46 114.72 6.23 103.92 0 103.92 3.73 20.34 3.73 20.34 8.73 103.92 8.73 103.92 12.46"/><polygon class="cls-1" points="103.92 22.34 32.8 22.34 32.8 27.34 103.92 27.34 103.92 31.07 114.72 24.84 103.92 18.61 103.92 22.34"/><path class="cls-2" d="M113.8,74.87a9,9,0,1,0,9,9A9,9,0,0,0,113.8,74.87Zm0,11.79a3.05,3.05,0,1,1,3.05-3.05A3.05,3.05,0,0,1,113.78,86.66Z"/><polygon class="cls-2" points="0 22.5 0 45.17 22.57 45.27 0 22.5"/><path class="cls-2" d="M30.13,97.09a15.5,15.5,0,1,1,15.5-15.5A15.5,15.5,0,0,1,30.13,97.09Zm83.67.63a13.87,13.87,0,1,1,13.87-13.87A13.87,13.87,0,0,1,113.8,97.72Z"/><path class="cls-2" d="M30.13,71.55a10,10,0,1,0,10,10A10,10,0,0,0,30.13,71.55Zm0,13.09a3.05,3.05,0,1,1,3.05-3.05A3.05,3.05,0,0,1,30.13,84.64Z"/><path class="cls-1" d="M32.54,63.2a18.35,18.35,0,0,1,12.2,29.25h54.5a16,16,0,0,1,6.58-23.79l-7.59-1.11c1.88-2.49,2.4-8.1.49-9.85-2.85-2.61-8.52-5.39-19.68-7l-1.69-5.08H60l-1.24,3.71c-4.55,0-9.59,0-15.15.27A3.69,3.69,0,0,0,40,53.29v2.88L0,15.8v6.7L22.57,45.27,0,45.17V74.43l12.31,2.26A18.4,18.4,0,0,1,32.54,63.2Z"/><circle class="cls-1" cx="30.13" cy="81.59" r="3.05"/><circle class="cls-1" cx="113.78" cy="83.61" r="3.05"/><path class="cls-1" d="M30.13,66.09a15.5,15.5,0,1,0,15.5,15.51A15.51,15.51,0,0,0,30.13,66.09Zm0,25.54a10,10,0,1,1,10-10A10,10,0,0,1,30.13,91.62Z"/><path class="cls-1" d="M113.8,70a13.87,13.87,0,1,0,13.87,13.88A13.88,13.88,0,0,0,113.8,70Zm0,22.85a9,9,0,1,1,9-9A9,9,0,0,1,113.8,92.83Z"/></svg>