<svg id="Layer_1" data-name="Layer 1" xmlns="http://www.w3.org/2000/svg" viewBox="0 0 120.88 120.88"><defs><style>.cls-1{fill:#77bc1f;}</style></defs><title>XXXXM3HTURBOBOOST</title><path class="cls-1" d="M61.6,59.54c11.57-15.8,10-31.49,6.19-40-3.88-9-9.95-10.91-9.54-10.72C66.8,32.37,64.32,46.14,61.6,59.54Z"/><path class="cls-1" d="M59.44,61.39c-11.57,15.78-10,31.46-6.16,40,3.89,9,10,10.9,9.56,10.72C54.26,88.54,56.72,74.79,59.44,61.39Z"/><path class="cls-1" d="M112.09,58.16c-23.57,8.55-37.32,6.09-50.72,3.37,15.79,11.57,31.48,10,40,6.18C110.4,63.83,112.27,57.75,112.09,58.16Z"/><path class="cls-1" d="M59.51,59.37c-15.79-11.57-31.47-10-40-6.18-9,3.89-10.9,10-10.72,9.55C32.36,54.18,46.11,56.65,59.51,59.37Z"/><path class="cls-1" d="M61.91,60.6c19.44-3.77,28.89-15.3,32.16-22.79,3.49-8,.79-11.94,1-12.13C84.44,43.12,73.22,53.44,61.91,60.6Z"/><path class="cls-1" d="M59.06,60.42C39.64,64.18,30.2,75.7,26.94,83.19c-3.48,8-.78,12-1,12.15C36.55,77.9,47.74,67.58,59.06,60.42Z"/><path class="cls-1" d="M60.34,61.87C64.11,81.3,75.63,90.75,83.12,94c8,3.48,12,.79,12.14,1C77.83,84.39,67.51,73.19,60.34,61.87Z"/><path class="cls-1" d="M60.53,59C56.76,39.59,45.24,30.15,37.75,26.88c-8-3.48-12-.78-12.14-1C43,36.51,53.36,47.7,60.53,59Z"/><path class="cls-1" d="M41.48,14h0S41.46,14,41.48,14Z"/><path class="cls-1" d="M52.63,19.86C46.57,13.52,41.83,14,41.48,14,55.21,31.68,59.12,45.83,61.19,59.17,66.23,40.19,58.67,26.14,52.63,19.86Z"/><path class="cls-1" d="M68.41,101c6.06,6.32,10.8,5.86,11.15,5.89C65.85,89.16,61.92,75,59.85,61.69,54.81,80.66,62.37,94.68,68.41,101Z"/><path class="cls-1" d="M79.56,106.84h0S79.58,106.84,79.56,106.84Z"/><path class="cls-1" d="M101,52.56c6.33-6.06,5.86-10.8,5.89-11.15C89.19,55.13,75,59,61.7,61.12,80.68,66.16,94.72,58.6,101,52.56Z"/><path class="cls-1" d="M106.88,41.41h0S106.89,41.39,106.88,41.41Z"/><path class="cls-1" d="M19.9,68.34C13.56,74.4,14,79.14,14,79.49,31.7,65.77,45.84,61.85,59.18,59.78,40.21,54.74,26.17,62.3,19.9,68.34Z"/><path class="cls-1" d="M14,79.49h0S14,79.51,14,79.49Z"/><path class="cls-1" d="M83.31,26.64c.14-9.21-4.46-13.23-4.33-13.23-2.15,23-9.36,35.53-17.12,46.65C78.5,49.45,83.27,35.44,83.31,26.64Z"/><path class="cls-1" d="M37.73,94.34c-.12,9.22,4.49,13.25,4.36,13.25,2.1-23,9.3-35.54,17.06-46.66C42.52,71.52,37.76,85.52,37.73,94.34Z"/><path class="cls-1" d="M94.28,83.24c9.21.13,13.24-4.47,13.24-4.34C84.52,76.77,72,69.57,60.87,61.8,71.47,78.44,85.47,83.21,94.28,83.24Z"/><path class="cls-1" d="M26.58,37.66c-9.22-.13-13.24,4.48-13.24,4.34,23,2.12,35.54,9.32,46.65,17.09C49.4,42.46,35.4,37.69,26.58,37.66Z"/><path class="cls-1" d="M60.44,0a60.44,60.44,0,1,0,60.44,60.44A60.51,60.51,0,0,0,60.44,0Zm0,113.88a53.44,53.44,0,1,1,53.44-53.44A53.5,53.5,0,0,1,60.44,113.88Z"/></svg>