<svg id="Layer_1" data-name="Layer 1" xmlns="http://www.w3.org/2000/svg" viewBox="0 0 76.21 106.23"><defs><style>.cls-1{fill:#77bc1f;}</style></defs><title>TWOSPEED</title><path class="cls-1" d="M71,33.55v-.38a8,8,0,0,1,.37-2.59,7.48,7.48,0,0,1,.94-1.87,17.52,17.52,0,0,1,1.22-1.54,14.31,14.31,0,0,0,1.22-1.58,8,8,0,0,0,.94-2,9.48,9.48,0,0,0,.37-2.85V18.12a6,6,0,0,0-.21-1.62,3,3,0,0,0-.7-1.28,3.39,3.39,0,0,0-1.33-.83,7.5,7.5,0,0,0-4.22,0,3.24,3.24,0,0,0-1.31.83,3,3,0,0,0-.67,1.28,6.52,6.52,0,0,0-.19,1.62v2.69h3.39V18.12a1,1,0,0,1,.22-.67,1,1,0,0,1,1.34,0,1,1,0,0,1,.22.67v2.66A5.93,5.93,0,0,1,72.26,23a6.59,6.59,0,0,1-.94,1.62q-.58.72-1.22,1.44a11.15,11.15,0,0,0-1.22,1.68,9.08,9.08,0,0,0-.94,2.34,13.5,13.5,0,0,0-.37,3.42v3.3h8.64V33.55Z"/><path class="cls-1" d="M73.47,68.88H70.59A2.12,2.12,0,0,1,70,70.33a2.37,2.37,0,0,1-1.84.62v2.4H70V88h-2v3.26h7.36V88h-2Z"/><path class="cls-1" d="M43.86,8.17A8.18,8.18,0,0,0,35.69,0H14A8.18,8.18,0,0,0,5.86,8.17v66.1A5.91,5.91,0,0,0,0,80.18v2.87A5.91,5.91,0,0,0,5.86,89v9.1A8.18,8.18,0,0,0,14,106.23H35.69a8.18,8.18,0,0,0,8.17-8.17V89h.28a5.91,5.91,0,0,0,5.91-5.85h9.72v-3H50.05a5.91,5.91,0,0,0-5.91-5.85h-.28V29.53H59.78v-3H43.86Zm-5,89.89a3.17,3.17,0,0,1-3.17,3.17H14a3.17,3.17,0,0,1-3.17-3.17V89h28Zm-11.5-23.8V52.43h-5V74.26H10.86V8.17A3.17,3.17,0,0,1,14,5H35.69a3.17,3.17,0,0,1,3.17,3.17V74.26Z"/></svg>