<svg id="Layer_1" data-name="Layer 1" xmlns="http://www.w3.org/2000/svg" viewBox="0 0 101.29 118"><defs><style>.cls-1{fill:#77bc1f;}</style></defs><title>USE WITHEGOPOWERBACKPACK</title><path class="cls-1" d="M86.44,16.9a12.76,12.76,0,0,1,1,4.3l2.5,2.61a5.16,5.16,0,0,1,1.47,3.57V33c6.15.54,10.67,9.56-2.76,49.46l.79.82C98,62.85,112.54,20.38,86.44,16.9Z"/><path class="cls-1" d="M88.59,85.3h0l-.06-.06h0l-.6-.62h0l-2.45-2.56V48.15l3-3.18a3.15,3.15,0,0,0,.9-2.18V27.38a3.15,3.15,0,0,0-.9-2.18l-3-3.18V21.9A10.89,10.89,0,0,0,74.59,11H68.47V4.6l-2.06-1C61.82,1.44,58.79,0,50.67,0S39.51,1.44,34.92,3.62l-2.06,1V11H26.75A10.89,10.89,0,0,0,15.85,21.9V22l-3,3.18a3.15,3.15,0,0,0-.9,2.18v15.4A3.15,3.15,0,0,0,12.8,45l3,3.18V82.05l-3,3.18a3.15,3.15,0,0,0-.9,2.18v15.4a3.15,3.15,0,0,0,.9,2.18l3,3.18v-.82A10.89,10.89,0,0,0,24.4,118c7.74-3.76,13.3-3.44,26.26-3.44s18.52-.33,26.26,3.44a10.89,10.89,0,0,0,8.55-10.64v.82l3-3.18a3.15,3.15,0,0,0,.9-2.18V87.42a3.14,3.14,0,0,0-.84-2.11ZM38.14,7.94c3.66-1.72,6.14-2.66,12.53-2.66s8.87.94,12.53,2.66V11c0,.95-5.61,1.72-12.53,1.72S38.14,12,38.14,11Zm4.58,78.14,5-20.24H38.14l7.64-28.65h9.17l-4.58,18H64.87Z"/><path class="cls-1" d="M9.92,33V27.38a5.17,5.17,0,0,1,1.47-3.57l2.5-2.61a12.76,12.76,0,0,1,1-4.3c-26.18,3.43-11.64,46-3,66.46l.78-.82C-.83,42.51,3.74,33.55,9.92,33Z"/></svg>