<svg id="Layer_1" data-name="Layer 1" xmlns="http://www.w3.org/2000/svg" viewBox="0 0 117.83 93.64"><defs><style>.cls-1{fill:#77bc1f;}</style></defs><title>VARIABLE SPEED</title><path class="cls-1" d="M117.83,62.2c-.47,3.14-.79,6.31-1.43,9.41A56.33,56.33,0,0,1,108,91.47,4.49,4.49,0,0,1,99.7,88.6a10.86,10.86,0,0,1,.45-1.72c-2-1.14-3.9-2.21-5.78-3.37a3.42,3.42,0,0,1-1.68-3.42,3.37,3.37,0,0,1,2.23-3,3.9,3.9,0,0,1,3.51.41l5.33,3.08a49.65,49.65,0,0,0,4.86-18.11h-6.07a3.72,3.72,0,0,1-3.81-2.22,3.56,3.56,0,0,1,3.44-5c2.1-.06,4.2,0,6.49,0-1.51-15.95-8.78-28.42-21.75-37.71-1.11,1.92-2.13,3.78-3.23,5.6a3.58,3.58,0,0,1-5.67,1,3,3,0,0,1-1-3.53c1-2.22,2.26-4.33,3.41-6.52-2.22-2-13.9-5.13-18-4.82,0,2.09,0,4.17,0,6.26A3.64,3.64,0,0,1,60.47,19a3.41,3.41,0,0,1-3.69-.37,3.9,3.9,0,0,1-1.49-3.32c0-2,0-4,0-6-3.17-.56-14.52,2.43-18.06,4.75,1.1,1.92,2.28,3.79,3.28,5.75A3.53,3.53,0,0,1,37,25.11,3.72,3.72,0,0,1,34,23c-1-1.75-2-3.51-3.09-5.35A49.47,49.47,0,0,0,17.65,30.92c1.93,1.1,3.79,2.14,5.63,3.23a3.57,3.57,0,0,1,1.88,3.44,3.38,3.38,0,0,1-2.14,3,3.83,3.83,0,0,1-3.62-.35c-1.76-1-3.51-2-5.35-3.1A49.05,49.05,0,0,0,9.2,55.3c2.16,0,4.22,0,6.28,0a3.65,3.65,0,0,1,3.91,3.38,3.54,3.54,0,0,1-3.49,3.78c-1.1.11-2.22.05-3.33.06H9.22a49.09,49.09,0,0,0,4.83,18.1c1.94-1.11,3.83-2.24,5.76-3.29a3.52,3.52,0,0,1,3.82.18A3.43,3.43,0,0,1,25.11,81,3.84,3.84,0,0,1,23,83.84L17.66,86.9A4.68,4.68,0,0,1,17.11,92c-1.59,2-5.08,2.31-6.54.24a60.92,60.92,0,0,1-5-8.47A55.82,55.82,0,0,1,.19,63.32c0-.38-.12-.75-.19-1.12v-6.9a8.39,8.39,0,0,0,.22-1.11A55.48,55.48,0,0,1,3,40.26,58.83,58.83,0,0,1,55.07.12,57.08,57.08,0,0,1,89.34,8.48c15.58,9.64,24.86,23.59,27.82,41.71.28,1.69.45,3.4.68,5.11Z"/><path class="cls-1" d="M97.08,37.38l-9.35,7C81.14,49.36,74.54,54.3,68,59.28a3.31,3.31,0,0,0-1.08,1.61A8.26,8.26,0,0,1,59,67.07,8.07,8.07,0,0,1,51,61a7.74,7.74,0,0,1,2.1-7.82A8.08,8.08,0,0,1,61,51a3.89,3.89,0,0,0,2.18-.13C74,46.24,84.76,41.61,95.57,37,96.09,36.77,96.76,36.19,97.08,37.38Z"/></svg>