<?xml version="1.0" encoding="UTF-8"?>
<svg width="75px" height="75px" viewBox="0 0 75 75" version="1.1" xmlns="http://www.w3.org/2000/svg" xmlns:xlink="http://www.w3.org/1999/xlink">
    <!-- Generator: Sketch 42 (36781) - http://www.bohemiancoding.com/sketch -->
    <title>SVG/ARC56</title>
    <desc>Created with Sketch.</desc>
    <defs></defs>
    <g id="Symbols" stroke="none" stroke-width="1" fill="none" fill-rule="evenodd">
        <g id="SVG/ARC56" fill="#77BC1F">
            <path d="M31.1251006,54.2532599 C31.1251006,53.9993287 31.1251006,53.6805641 31.1889901,53.2978664 C33.7022788,53.0430348 36.1516779,52.9160692 38.4750976,52.9160692 C41.2430446,52.9160692 42.1033038,53.2663501 42.1033038,54.8907892 L42.1033038,55.7813492 C42.1033038,57.246406 41.4662081,57.7560692 39.1112935,57.7560692 L34.5301433,57.7560692 C31.3797589,57.7560692 31.1251006,57.1194404 31.1251006,54.2532599 L31.1251006,54.2532599 Z M38.6658664,50.2416878 C36.1210829,50.2416878 33.7022788,50.4650032 31.4112538,50.8152841 C32.6521507,47.3439911 36.0256985,46.5803967 42.1338988,46.5803967 L43.1849268,46.5803967 L40.9253966,43.9375315 C40.5438591,43.9051148 40.1299268,43.874499 39.7483892,43.874499 C32.0474496,43.874499 27.6246735,47.3764078 27.6246735,53.4896655 L27.6246735,55.6552841 C27.6246735,59.5705064 28.9618546,60.717699 33.0345881,60.717699 L39.9706529,60.717699 C43.7896278,60.717699 45.6028311,59.4759576 45.6028311,56.7061269 L45.6028311,54.4765753 C45.6028311,51.1331483 43.6933436,50.2416878 38.6658664,50.2416878 L38.6658664,50.2416878 Z M53.4927398,60.717699 L56.1338075,60.717699 L65.1710284,44.2878125 L61.3529533,44.2878125 L55.0206897,56.1640469 L48.3707781,44.2878125 L44.0109916,44.2878125 L53.4927398,60.717699 Z M8.40651885,53.3942162 C12.0662199,52.9160692 15.0249356,52.7251706 17.2844658,52.7251706 C20.9117722,52.7251706 22.6610859,53.3311836 22.6610859,55.2725864 C22.6610859,57.3112394 20.9441669,57.9478683 17.0622022,57.9478683 C14.2609607,57.9478683 11.3976293,57.6291036 8.40651885,57.0861232 L9.23438336,60.2719687 C10.9836971,60.6861827 13.6247648,60.9401139 17.1575866,60.9401139 C23.2972817,60.9401139 26.1930078,59.4120246 26.1930078,55.4319687 C26.1930078,51.7067446 23.4565557,49.8598906 18.0475409,49.8598906 C16.1074585,49.8598906 13.9118178,50.0192729 11.3976293,50.2732041 L11.7791669,47.0891594 L23.234292,47.0891594 L23.5204452,44.2878125 L9.32976775,44.2878125 L8.40651885,53.3942162 Z M62.2051138,20.214778 L62.2051138,22.8396339 L65.4157884,22.3308711 L65.4157884,21.0188934 C65.4157884,18.4210515 64.587024,17.752006 61.9918487,17.752006 L53.7491978,17.752006 C51.1540225,17.752006 50.3252582,18.4210515 50.3252582,21.0188934 L50.3252582,28.3018553 C50.3252582,30.8987967 51.1540225,31.5687427 53.7491978,31.5687427 L61.9918487,31.5687427 C64.587024,31.5687427 65.4157884,30.8987967 65.4157884,28.3018553 L65.4157884,26.6675111 L62.2051138,25.9984655 L62.2051138,28.9709008 L53.5359327,28.9709008 L53.5359327,20.214778 L62.2051138,20.214778 Z M40.8813038,20.1346367 C41.8711418,20.1346367 42.3255675,20.3228339 42.3255675,21.2323036 L42.3255675,22.8936618 C42.3255675,23.804032 41.8711418,23.9913287 40.8813038,23.9913287 L33.6563863,23.9913287 L33.6563863,20.1346367 L40.8813038,20.1346367 Z M30.4988031,31.5687427 L33.6563863,31.5687427 L33.6563863,26.3469455 L36.706887,26.3469455 L42.2724761,31.5687427 L46.874323,31.5687427 L40.5060652,26.3469455 L42.3255675,26.3469455 C44.4393215,26.3469455 45.4291595,25.596858 45.4291595,23.6698627 L45.4291595,20.4299892 C45.4291595,18.5020934 44.4393215,17.752006 42.3255675,17.752006 L30.4988031,17.752006 L30.4988031,31.5687427 Z M14.7396823,26.0524934 L17.8171786,20.4290887 L20.7875925,26.0524934 L14.7396823,26.0524934 Z M8.55949381,31.5687427 L11.7692685,31.5687427 L13.3755056,28.5422794 L22.1256735,28.5422794 L23.7841021,31.5687427 L27.395211,31.5687427 L19.4756072,17.752006 L16.3720152,17.752006 L8.55949381,31.5687427 Z M56.0177265,41.1325827 L57.3324113,41.1325827 L57.3324113,36.8085492 C57.3324113,36.5771297 57.3180137,36.3457101 57.2910181,36.0620636 C57.3999003,36.3331036 57.548376,36.5636227 57.7103495,36.7806348 L60.3388193,40.2915483 L60.664566,40.2915483 L63.2930358,36.7941418 C63.4154158,36.632058 63.5503937,36.374525 63.6997692,36.0620636 C63.658376,36.4285529 63.6448782,36.672579 63.6448782,36.8085492 L63.6448782,41.1325827 L65.149432,41.1325827 L65.149432,34.1368692 L63.8482449,34.1368692 L60.6231728,38.3663539 L57.3324113,34.1368692 L56.0177265,34.1368692 L56.0177265,41.1325827 Z M46.8707236,34.1368692 L45.2455895,34.1368692 L45.2455895,39.4784283 C45.2455895,40.7940078 45.6649209,41.1325827 46.9796057,41.1325827 L51.3951831,41.1325827 C52.7098679,41.1325827 53.1291993,40.7940078 53.1291993,39.4784283 L53.1291993,34.1368692 L51.5040652,34.1368692 L51.5040652,39.8170032 L46.8707236,39.8170032 L46.8707236,34.1368692 Z M40.7193303,41.1325827 L42.3444644,41.1325827 L42.3444644,34.1368692 L40.7193303,34.1368692 L40.7193303,41.1325827 Z M29.472971,41.1325827 L31.098105,41.1325827 L31.098105,38.1223278 L36.1786735,38.1223278 L36.1786735,41.1325827 L37.8182052,41.1325827 L37.8182052,34.1368692 L36.1786735,34.1368692 L36.1786735,36.8481697 L31.098105,36.8481697 L31.098105,34.1368692 L29.472971,34.1368692 L29.472971,41.1325827 Z M24.933214,35.3849139 L28.1573863,35.3849139 L28.1573863,34.1368692 L20.0965056,34.1368692 L20.0965056,35.3849139 L23.3071801,35.3849139 L23.3071801,41.1325827 L24.933214,41.1325827 L24.933214,35.3849139 Z M17.1557869,41.1325827 L18.7809209,41.1325827 L18.7809209,34.1368692 L17.1557869,34.1368692 L17.1557869,41.1325827 Z M8.57839072,41.1325827 L15.4460667,41.1325827 L15.4460667,39.8179036 L10.2035247,39.8179036 L10.2035247,34.1368692 L8.57839072,34.1368692 L8.57839072,41.1325827 Z M0.241255228,74.6343873 L74.2820373,74.6343873 L74.2820373,0.544117581 L0.241255228,0.544117581 L0.241255228,74.6343873 Z" id="SVG/Icons/ARC56"></path>
        </g>
    </g>
</svg>