<?xml version="1.0" encoding="UTF-8"?>
<svg width="113px" height="66px" viewBox="0 0 113 66" version="1.1" xmlns="http://www.w3.org/2000/svg" xmlns:xlink="http://www.w3.org/1999/xlink">
    <!-- Generator: Sketch 43.2 (39069) - http://www.bohemiancoding.com/sketch -->
    <title>SVG/EasySetup@2x</title>
    <desc>Created with Sketch.</desc>
    <defs></defs>
    <g id="Symbols" stroke="none" stroke-width="1" fill="none" fill-rule="evenodd">
        <g id="SVG/EasySetup" transform="translate(-19.000000, -21.000000)" fill="#FFFFFF">
            <g>
                <path d="M117.1124,77.82 C117.1124,77.82 117.1084,77.177 117.1004,75.973 C117.0964,75.371 117.0914,74.628 117.0854,73.755 C117.0784,73.329 117.0894,72.826 117.0664,72.372 C117.0204,71.975 116.9714,71.554 116.9204,71.109 C116.8264,70.207 116.7244,69.208 116.6124,68.121 C116.3754,66.964 116.1184,65.712 115.8444,64.374 C115.5474,63.037 115.0264,61.673 114.6014,60.186 C114.1284,58.716 113.3954,57.262 112.7714,55.674 C112.4144,54.901 111.9594,54.159 111.5484,53.371 C111.1024,52.605 110.7474,51.755 110.2084,51.007 C109.1444,49.504 108.1894,47.819 106.8594,46.355 C104.4564,43.202 101.2994,40.394 97.8244,37.764 C94.3054,35.164 90.2174,33.132 85.8804,31.482 C81.4934,29.939 76.7934,29.103 72.0084,28.756 L68.3384,28.776 C67.7164,28.799 67.0114,28.745 66.4594,28.829 L64.7364,29.018 L63.0064,29.198 C62.4304,29.239 61.8494,29.318 61.2614,29.465 C60.0874,29.709 58.9164,29.952 57.7494,30.195 C53.1594,31.457 48.7004,33.166 44.7474,35.547 C40.8384,37.954 37.1834,40.642 34.2754,43.78 C32.6934,45.236 31.4834,46.938 30.1704,48.481 C29.5054,49.25 29.0274,50.126 28.4594,50.923 C27.9254,51.742 27.3514,52.52 26.8774,53.333 C26.0174,55.004 25.0584,56.557 24.3734,58.139 C23.7374,59.739 23.0184,61.228 22.5384,62.695 C22.0864,64.176 21.6634,65.563 21.2724,66.844 C20.9794,68.152 20.7634,69.368 20.5384,70.464 C20.4294,71.013 20.3264,71.533 20.2304,72.022 C20.1604,72.514 20.1334,72.981 20.0874,73.413 C20.0054,74.28 19.9354,75.017 19.8784,75.615 C19.7644,76.815 19.7044,77.455 19.7044,77.455 C19.7044,77.455 19.7084,76.813 19.7164,75.609 C19.7204,75.006 19.7254,74.261 19.7314,73.385 C19.7394,72.948 19.7264,72.474 19.7524,71.972 C19.8064,71.472 19.8634,70.942 19.9244,70.382 C20.0534,69.259 20.1644,68.007 20.3464,66.652 C20.6294,65.312 20.9354,63.863 21.2624,62.315 C21.6224,60.77 22.2184,59.187 22.7354,57.474 C23.2994,55.779 24.1404,54.092 24.8904,52.269 C25.3104,51.38 25.8324,50.519 26.3154,49.614 C26.8334,48.73 27.2644,47.761 27.8854,46.896 C29.1124,45.159 30.2494,43.242 31.7804,41.552 C34.5864,37.948 38.2264,34.716 42.2564,31.724 C46.3294,28.76 51.0474,26.43 56.0574,24.579 C57.3384,24.192 58.6234,23.803 59.9134,23.414 C60.5494,23.2 61.2184,23.044 61.9104,22.925 L63.9674,22.528 L66.0394,22.138 C66.7494,21.99 67.3364,21.993 67.9904,21.913 L72.0084,21.546 C77.4884,21.441 83.0334,21.93 88.3484,23.291 C93.6114,24.756 98.6984,26.763 103.2074,29.507 C107.6724,32.276 111.8094,35.388 115.1204,38.977 C116.9034,40.658 118.2954,42.593 119.7714,44.371 C120.5174,45.257 121.0724,46.251 121.7124,47.166 C122.3174,48.102 122.9594,48.999 123.4964,49.928 C124.4824,51.834 125.5484,53.621 126.3244,55.427 C127.0534,57.253 127.8474,58.962 128.3894,60.636 C128.8944,62.329 129.3664,63.912 129.8034,65.377 C130.1494,66.93 130.4044,68.415 130.6524,69.736 C130.7704,70.401 130.8814,71.03 130.9864,71.623 C131.0584,72.163 131.0844,72.599 131.1314,73.044 C131.2134,73.913 131.2834,74.652 131.3404,75.252 C131.4534,76.451 131.5144,77.091 131.5144,77.091 L117.1124,77.82 Z" id="Fill-3"></path>
                <path d="M76.0582,86.445 C73.3762,87.644 70.2292,86.443 69.0292,83.761 C67.8292,81.08 69.0312,77.933 71.7122,76.733 C74.3942,75.533 77.5412,76.734 78.7412,79.417 C79.9412,82.098 78.7402,85.245 76.0582,86.445" id="Fill-5"></path>
                <polygon id="Fill-7" points="75.6968 86.6061 71.3508 76.8951 120.8948 59.5171"></polygon>
            </g>
        </g>
    </g>
</svg>