<?xml version="1.0" encoding="UTF-8"?>
<svg width="89px" height="89px" viewBox="0 0 89 89" version="1.1" xmlns="http://www.w3.org/2000/svg" xmlns:xlink="http://www.w3.org/1999/xlink">
    <!-- Generator: Sketch 43.2 (39069) - http://www.bohemiancoding.com/sketch -->
    <title>SVG/FoldFlat@2x</title>
    <desc>Created with Sketch.</desc>
    <defs></defs>
    <g id="Symbols" stroke="none" stroke-width="1" fill="none" fill-rule="evenodd">
        <g id="SVG/FoldFlat" transform="translate(-29.000000, -28.000000)">
            <g>
                <path d="M77.0376,65.4215 C78.0586,66.2245 80.8646,68.4445 80.8646,68.4445 L82.0586,67.0675 C82.0586,67.0675 82.0866,67.0425 82.0856,67.0315 C82.0696,66.8805 82.1096,66.6585 82.0246,66.5905 C80.9046,65.6865 79.8216,64.8295 78.6776,63.9555 C78.5946,63.8935 78.3486,63.9145 78.2776,63.9895 C77.9996,64.2855 77.3346,65.0465 77.0376,65.4215" id="Fill-27" fill="#575756"></path>
                <path d="M79.9766,68.194 C78.8986,67.376 77.8436,66.525 76.7326,65.651 C76.6466,65.762 76.5636,65.871 76.4686,65.991 C77.4896,66.793 78.4556,67.573 79.4436,68.323 C80.2936,68.968 80.2656,69.154 80.6206,68.712 C80.4726,68.592 80.2736,68.419 79.9766,68.194" id="Fill-29" fill="#575756"></path>
                <path d="M73.0479,66.0251 C73.0479,65.6541 72.7449,65.3501 72.3729,65.3501 L66.8789,65.3501 C66.5069,65.3501 66.2039,65.6541 66.2039,66.0251 L66.2039,67.3541 C66.2039,67.7251 66.5069,68.0291 66.8789,68.0291 L72.3729,68.0291 C72.7449,68.0291 73.0479,67.7251 73.0479,67.3541 L73.0479,66.0251 Z M65.0339,65.2061 C65.0339,64.2721 65.3219,63.9791 66.2489,63.9791 C68.4029,63.9771 70.5579,63.9571 72.7119,63.9971 C73.1189,64.0041 73.5929,64.1611 73.9139,64.4091 C76.5769,66.4671 79.2069,68.5691 81.8589,70.6431 C82.2919,70.9821 82.4649,71.3631 82.4629,71.9211 C82.4429,76.7921 82.4519,81.6631 82.4469,86.5331 C82.4459,86.7861 82.4179,87.0481 82.3469,87.2901 C82.2379,87.6651 81.9869,87.9171 81.5739,87.9571 C81.4079,87.9731 81.2419,87.9901 81.0759,87.9901 C76.1599,87.9911 71.2439,87.9951 66.3279,87.9821 C66.0229,87.9821 65.6869,87.9211 65.4199,87.7811 C65.0629,87.5951 65.0289,87.2101 65.0299,86.8271 C65.0359,83.2151 65.0329,79.6041 65.0329,75.9941 C65.0329,72.3971 65.0329,68.8011 65.0339,65.2061 L65.0339,65.2061 Z" id="Fill-31" fill="#575756"></path>
                <path d="M80.7197,56.4372 C82.4897,57.8282 87.3537,61.6782 87.3537,61.6782 L89.4247,59.2902 C89.4247,59.2902 89.4727,59.2472 89.4707,59.2282 C89.4437,58.9662 89.5117,58.5812 89.3657,58.4622 C87.4237,56.8942 85.5457,55.4112 83.5617,53.8962 C83.4187,53.7872 82.9927,53.8242 82.8697,53.9552 C82.3877,54.4682 81.2347,55.7872 80.7197,56.4372" id="Fill-35" fill="#FFFFFF"></path>
                <path d="M85.8145,61.2419 C83.9455,59.8239 82.1165,58.3489 80.1915,56.8349 C80.0425,57.0279 79.8975,57.2169 79.7335,57.4239 C81.5025,58.8139 83.1775,60.1659 84.8905,61.4669 C86.3645,62.5869 86.3155,62.9079 86.9305,62.1399 C86.6745,61.9339 86.3295,61.6339 85.8145,61.2419" id="Fill-37" fill="#FFFFFF"></path>
                <path d="M73.8032,57.4831 C73.8032,56.8391 73.2772,56.3131 72.6332,56.3131 L63.1072,56.3131 C62.4642,56.3131 61.9372,56.8391 61.9372,57.4831 L61.9372,59.7871 C61.9372,60.4291 62.4642,60.9571 63.1072,60.9571 L72.6332,60.9571 C73.2772,60.9571 73.8032,60.4291 73.8032,59.7871 L73.8032,57.4831 Z M59.9082,56.0621 C59.9082,54.4431 60.4082,53.9361 62.0152,53.9351 C65.7502,53.9321 69.4862,53.8971 73.2202,53.9661 C73.9252,53.9801 74.7482,54.2521 75.3032,54.6801 C79.9202,58.2501 84.4802,61.8931 89.0772,65.4891 C89.8282,66.0761 90.1282,66.7371 90.1242,67.7061 C90.0902,76.1491 90.1072,84.5921 90.0972,93.0371 C90.0962,93.4751 90.0472,93.9301 89.9252,94.3491 C89.7352,94.9991 89.3002,95.4351 88.5842,95.5051 C88.2972,95.5331 88.0082,95.5611 87.7202,95.5621 C79.1972,95.5651 70.6752,95.5701 62.1522,95.5491 C61.6232,95.5481 61.0412,95.4411 60.5782,95.2011 C59.9592,94.8791 59.9012,94.2111 59.9022,93.5461 C59.9122,87.2861 59.9082,81.0251 59.9082,74.7641 C59.9082,68.5311 59.9072,62.2961 59.9082,56.0621 L59.9082,56.0621 Z" id="Fill-39" fill="#FFFFFF"></path>
                <path d="M41.8706,100.0436 L105.6216,100.0436 L105.6216,61.9916 L72.5646,37.1306 L41.8706,61.9246 L41.8706,100.0436 Z M108.7466,106.2936 L38.7456,106.2936 C37.0206,106.2936 35.6216,104.8946 35.6216,103.1686 L35.6216,60.4316 C35.6216,59.4876 36.0476,58.5946 36.7816,58.0006 L70.5316,30.7376 C71.6476,29.8366 73.2316,29.8106 74.3736,30.6716 L110.6246,57.9346 C111.4096,58.5236 111.8706,59.4496 111.8706,60.4316 L111.8706,103.1686 C111.8706,104.8946 110.4726,106.2936 108.7466,106.2936 L108.7466,106.2936 Z" id="Fill-41" fill="#FFFFFF"></path>
                <path d="M113.1909,115.1051 C112.4229,115.1051 111.6559,114.8121 111.0699,114.2261 L32.1789,35.3351 C31.0069,34.1641 31.0069,32.2641 32.1789,31.0931 C33.3509,29.9211 35.2499,29.9211 36.4209,31.0931 L115.3119,109.9841 C116.4839,111.1561 116.4839,113.0541 115.3119,114.2261 C114.7259,114.8121 113.9589,115.1051 113.1909,115.1051" id="Fill-43" fill="#FFFFFF"></path>
                <path d="M34.3003,115.1051 C33.5323,115.1051 32.7653,114.8121 32.1793,114.2261 C31.0073,113.0541 31.0073,111.1561 32.1793,109.9841 L111.0703,31.0931 C112.2413,29.9211 114.1403,29.9211 115.3123,31.0931 C116.4843,32.2641 116.4843,34.1641 115.3123,35.3351 L36.4213,114.2261 C35.8353,114.8121 35.0683,115.1051 34.3003,115.1051" id="Fill-45" fill="#FFFFFF"></path>
                <path d="M113.1909,115.8551 C112.1899,115.8551 111.2479,115.4641 110.5399,114.7561 L73.7459,77.9621 L36.9519,114.7561 C36.2429,115.4641 35.3019,115.8551 34.2999,115.8551 C33.2989,115.8551 32.3579,115.4641 31.6489,114.7561 C30.9409,114.0481 30.5499,113.1061 30.5499,112.1051 C30.5499,111.1041 30.9409,110.1621 31.6489,109.4541 L68.4429,72.6601 L31.6489,35.8661 C30.9409,35.1581 30.5499,34.2151 30.5499,33.2141 C30.5499,32.2121 30.9409,31.2711 31.6489,30.5631 C32.3579,29.8551 33.2989,29.4641 34.2999,29.4641 C35.3019,29.4641 36.2429,29.8551 36.9519,30.5631 L73.7459,67.3571 L110.5399,30.5631 C111.2479,29.8551 112.1899,29.4641 113.1909,29.4641 C114.1919,29.4641 115.1339,29.8551 115.8419,30.5631 C116.5509,31.2711 116.9409,32.2121 116.9409,33.2141 C116.9409,34.2151 116.5509,35.1581 115.8419,35.8661 L79.0479,72.6601 L115.8419,109.4541 C116.5509,110.1621 116.9409,111.1041 116.9409,112.1051 C116.9409,113.1061 116.5509,114.0481 115.8419,114.7561 C115.1339,115.4641 114.1919,115.8551 113.1909,115.8551" id="Fill-47" fill="#FFFFFF"></path>
                <path d="M113.1909,28.7145 C111.9889,28.7145 110.8589,29.1825 110.0089,30.0325 L73.7459,66.2955 L37.4829,30.0325 C36.6319,29.1825 35.5019,28.7145 34.2999,28.7145 C33.0989,28.7145 31.9689,29.1825 31.1189,30.0325 C30.2689,30.8825 29.7999,32.0125 29.7999,33.2145 C29.7999,34.4165 30.2689,35.5465 31.1189,36.3965 L67.3819,72.6595 L31.1189,108.9235 C30.2689,109.7735 29.7999,110.9025 29.7999,112.1055 C29.7999,113.3065 30.2689,114.4365 31.1189,115.2865 C31.9689,116.1365 33.0989,116.6055 34.2999,116.6055 C35.5019,116.6055 36.6319,116.1365 37.4829,115.2865 L73.7459,79.0235 L110.0089,115.2865 C110.8589,116.1365 111.9889,116.6055 113.1909,116.6055 C114.3929,116.6055 115.5229,116.1365 116.3729,115.2865 C117.2229,114.4365 117.6909,113.3065 117.6909,112.1055 C117.6909,110.9025 117.2229,109.7735 116.3729,108.9225 L80.1089,72.6595 L116.3729,36.3965 C117.2229,35.5465 117.6909,34.4165 117.6909,33.2145 C117.6909,32.0125 117.2229,30.8825 116.3729,30.0315 C115.5229,29.1825 114.3929,28.7145 113.1909,28.7145 M113.1909,30.2145 C113.9589,30.2145 114.7259,30.5075 115.3119,31.0935 C116.4839,32.2645 116.4839,34.1635 115.3119,35.3355 L77.9879,72.6595 L115.3119,109.9845 C116.4839,111.1555 116.4839,113.0545 115.3119,114.2265 C114.7259,114.8125 113.9589,115.1055 113.1909,115.1055 C112.4229,115.1055 111.6559,114.8125 111.0699,114.2265 L73.7459,76.9025 L36.4209,114.2265 C35.8359,114.8125 35.0679,115.1055 34.2999,115.1055 C33.5329,115.1055 32.7649,114.8125 32.1789,114.2265 C31.0069,113.0545 31.0069,111.1555 32.1789,109.9845 L69.5029,72.6595 L32.1789,35.3355 C31.0069,34.1635 31.0069,32.2645 32.1789,31.0935 C32.7649,30.5075 33.5329,30.2145 34.2999,30.2145 C35.0679,30.2145 35.8359,30.5075 36.4209,31.0935 L73.7459,68.4175 L111.0699,31.0935 C111.6559,30.5075 112.4229,30.2145 113.1909,30.2145" id="Fill-49" fill="#3C3C3B"></path>
            </g>
        </g>
    </g>
</svg>