<?xml version="1.0" encoding="UTF-8"?>
<svg width="104px" height="39px" viewBox="0 0 104 39" version="1.1" xmlns="http://www.w3.org/2000/svg" xmlns:xlink="http://www.w3.org/1999/xlink">
    <!-- Generator: Sketch 43.2 (39069) - http://www.bohemiancoding.com/sketch -->
    <title>SVG/LessNoise@2x</title>
    <desc>Created with Sketch.</desc>
    <defs></defs>
    <g id="Symbols" stroke="none" stroke-width="1" fill="none" fill-rule="evenodd">
        <g id="SVG/LessNoise" transform="translate(-24.000000, -55.000000)" fill="#FFFFFF">
            <g>
                <path d="M34.441,79.7868 C34.441,83.0458 32.291,85.7128 29.663,85.7128 C27.034,85.7128 24.884,83.0458 24.884,79.7868 L24.884,73.3208 C24.884,70.0608 27.034,67.3938 29.663,67.3938 C32.291,67.3938 34.441,70.0608 34.441,73.3208 L34.441,79.7868 Z" id="Fill-11"></path>
                <path d="M47.7813,82.5739 C47.7813,85.8339 45.6313,88.5009 43.0033,88.5009 C40.3743,88.5009 38.2243,85.8339 38.2243,82.5739 L38.2243,66.5519 C38.2243,63.2919 40.3743,60.6249 43.0033,60.6249 C45.6313,60.6249 47.7813,63.2919 47.7813,66.5519 L47.7813,82.5739 Z" id="Fill-13"></path>
                <path d="M61.1216,87.6794 C61.1216,90.9394 58.9716,93.6064 56.3436,93.6064 C53.7146,93.6064 51.5646,90.9394 51.5646,87.6794 L51.5646,61.7354 C51.5646,58.4754 53.7146,55.8084 56.3436,55.8084 C58.9716,55.8084 61.1216,58.4754 61.1216,61.7354 L61.1216,87.6794 Z" id="Fill-15"></path>
                <path d="M74.462,82.901 C74.462,86.16 72.312,88.827 69.684,88.827 C67.055,88.827 64.905,86.16 64.905,82.901 L64.905,66.116 C64.905,62.856 67.055,60.189 69.684,60.189 C72.312,60.189 74.462,62.856 74.462,66.116 L74.462,82.901 Z" id="Fill-17"></path>
                <path d="M87.8028,79.1891 C87.8028,82.4491 85.6528,85.1151 83.0238,85.1151 C80.3958,85.1151 78.2448,82.4491 78.2448,79.1891 L78.2448,70.9311 C78.2448,67.6721 80.3958,65.0051 83.0238,65.0051 C85.6528,65.0051 87.8028,67.6721 87.8028,70.9311 L87.8028,79.1891 Z" id="Fill-19"></path>
                <path d="M101.1431,83.2985 C101.1431,86.5585 98.9931,89.2255 96.3641,89.2255 C93.7361,89.2255 91.5851,86.5585 91.5851,83.2985 L91.5851,66.3145 C91.5851,63.0555 93.7361,60.3885 96.3641,60.3885 C98.9931,60.3885 101.1431,63.0555 101.1431,66.3145 L101.1431,83.2985 Z" id="Fill-21"></path>
                <path d="M114.4834,78.7907 C114.4834,82.0507 112.3334,84.7177 109.7044,84.7177 C107.0764,84.7177 104.9254,82.0507 104.9254,78.7907 L104.9254,71.1307 C104.9254,67.8707 107.0764,65.2047 109.7044,65.2047 C112.3334,65.2047 114.4834,67.8707 114.4834,71.1307 L114.4834,78.7907 Z" id="Fill-23"></path>
                <path d="M127.8238,74.0651 C127.8238,76.6381 125.6738,78.7441 123.0448,78.7441 C120.4168,78.7441 118.2658,76.6381 118.2658,74.0651 C118.2658,71.4911 120.4168,69.3851 123.0448,69.3851 C125.6738,69.3851 127.8238,71.4911 127.8238,74.0651" id="Fill-25"></path>
            </g>
        </g>
    </g>
</svg>