<?xml version="1.0" encoding="UTF-8"?>
<svg width="85px" height="84px" viewBox="0 0 85 84" version="1.1" xmlns="http://www.w3.org/2000/svg" xmlns:xlink="http://www.w3.org/1999/xlink">
    <!-- Generator: Sketch 43.2 (39069) - http://www.bohemiancoding.com/sketch -->
    <title>SVG/LowerRunning@2x</title>
    <desc>Created with Sketch.</desc>
    <defs></defs>
    <g id="Symbols" stroke="none" stroke-width="1" fill="none" fill-rule="evenodd">
        <g id="SVG/LowerRunning" transform="translate(-33.000000, -36.000000)">
            <g>
                <path d="M97.317,84.819 C96.106,84.819 95.114,83.828 95.114,82.616 L95.114,41.064 C95.114,39.852 94.123,38.861 92.911,38.861 L57.863,38.861 C56.651,38.861 55.66,39.852 55.66,41.064 L55.66,82.616 C55.66,83.828 54.669,84.819 53.457,84.819 L36.407,84.819 C35.195,84.819 34.985,85.429 35.941,86.175 L74.53,116.314 C75.485,117.06 77.035,117.045 77.974,116.279 L114.862,86.211 C115.801,85.445 115.579,84.819 114.367,84.819 L97.317,84.819 Z" id="Stroke-74" stroke="#FFFFFF" stroke-width="4.663"></path>
                <path d="M65.463,70.6608 L67.787,70.6608 L67.787,58.8528 C67.787,57.6818 67.922,56.5818 68.195,55.5558 C68.467,54.5298 68.949,53.6498 69.64,52.9178 C70.331,52.1848 71.242,51.6088 72.372,51.1898 C73.503,50.7718 74.926,50.5618 76.643,50.5618 C79.742,50.5618 81.961,51.3478 83.301,52.9178 C84.641,54.4878 85.311,56.4668 85.311,58.8528 L85.311,63.5628 L77.837,63.5628 L77.837,58.8528 C77.837,58.4758 77.732,58.1618 77.523,57.9108 C77.313,57.6598 77.02,57.5338 76.643,57.5338 C76.267,57.5338 75.973,57.6598 75.764,57.9108 C75.554,58.1618 75.45,58.4758 75.45,58.8528 L75.45,70.6608 L79.721,70.6608 L79.721,75.1828 L75.45,75.1828 L75.45,86.4268 C75.45,86.8458 75.565,87.1908 75.796,87.4628 C76.025,87.7358 76.433,87.8708 77.02,87.8708 L85.311,87.8708 L85.311,95.1568 L76.769,95.1568 C75.68,95.1568 74.686,95.0208 73.785,94.7488 C72.884,94.4768 72.099,93.9848 71.43,93.2718 C70.76,93.9848 69.975,94.4768 69.075,94.7488 C68.174,95.0208 67.012,95.1568 65.589,95.1568 L65.589,87.8708 C66.426,87.8708 67.002,87.7458 67.316,87.4938 C67.63,87.2428 67.787,86.8878 67.787,86.4268 L67.787,75.1828 L65.463,75.1828 L65.463,70.6608 Z" id="Fill-76" fill="#FFFFFF"></path>
            </g>
        </g>
    </g>
</svg>