<?xml version="1.0" encoding="UTF-8"?>
<svg width="98px" height="75px" viewBox="0 0 98 75" version="1.1" xmlns="http://www.w3.org/2000/svg" xmlns:xlink="http://www.w3.org/1999/xlink">
    <!-- Generator: Sketch 43.2 (39069) - http://www.bohemiancoding.com/sketch -->
    <title>SVG/NoPetrolStore@2x</title>
    <desc>Created with Sketch.</desc>
    <defs></defs>
    <g id="Symbols" stroke="none" stroke-width="1" fill="none" fill-rule="evenodd">
        <g id="SVG/NoPetrolStore" transform="translate(-26.000000, -30.000000)">
            <g>
                <polygon id="Fill-80" fill="#FFFFFF" points="47.0186 47.3112 45.4096 52.8042 41.5246 45.7022"></polygon>
                <polygon id="Fill-82" fill="#FFFFFF" points="34.8745 82.8493 29.4235 81.0993 36.6245 77.3983"></polygon>
                <path d="M33.7047,81.0729 C33.2837,79.9839 32.9287,78.8549 32.6447,77.6899 C29.7567,65.8029 35.2677,53.8429 45.3747,48.0519" id="Stroke-84" stroke="#FFFFFF" stroke-width="1.5"></path>
                <path d="M86.7305,100.7097 C85.2605,98.7597 84.3795,96.3447 84.3795,93.7207 C84.3795,87.2937 89.6075,82.0647 96.0355,82.0647 C101.4225,82.0647 105.9545,85.7437 107.2835,90.7187 C107.2835,90.7187 122.1495,89.0167 122.5435,88.9437 C122.9365,88.8717 123.1985,88.7707 123.3705,87.9857 C123.9955,84.8647 123.7015,72.3317 123.8245,71.7047 C123.9965,70.8237 123.6825,70.1927 122.8915,70.1927 C122.1845,70.1927 97.9185,70.8137 97.9185,70.8137 L86.7975,80.4637 L48.0105,85.6277 C51.5445,87.2257 54.0145,90.7767 54.0145,94.9017 C54.0145,97.0607 53.3345,99.0607 52.1835,100.7097 L86.7305,100.7097 Z" id="Fill-86" fill="#FFFFFF"></path>
                <path d="M98.4307,93.822 C98.4307,95.169 97.3397,96.26 95.9927,96.26 C94.6467,96.26 93.5557,95.169 93.5557,93.822 C93.5557,92.476 94.6467,91.384 95.9927,91.384 C97.3397,91.384 98.4307,92.476 98.4307,93.822" id="Fill-88" fill="#FFFFFF"></path>
                <path d="M45.4072,95.1052 C45.4072,96.4512 44.3162,97.5432 42.9692,97.5432 C41.6232,97.5432 40.5322,96.4512 40.5322,95.1052 C40.5322,93.7582 41.6232,92.6672 42.9692,92.6672 C44.3162,92.6672 45.4072,93.7582 45.4072,95.1052" id="Fill-90" fill="#FFFFFF"></path>
                <path d="M89.0278,93.822 C89.0278,89.983 92.1528,86.857 95.9928,86.857 C99.8328,86.857 102.9568,89.983 102.9568,93.822 C102.9568,97.664 99.8338,100.788 95.9928,100.788 C92.1528,100.788 89.0288,97.664 89.0278,93.822 M86.1668,93.825 C86.1668,99.25 90.5668,103.649 95.9928,103.649 C101.4198,103.649 105.8198,99.25 105.8198,93.825 C105.8198,88.397 101.4188,83.996 95.9928,83.996 C90.5668,83.996 86.1668,88.398 86.1668,93.825" id="Fill-92" fill="#FFFFFF"></path>
                <path d="M36.6865,95.2565 C36.6865,91.7995 39.4985,88.9855 42.9555,88.9855 C46.4135,88.9855 49.2235,91.8005 49.2235,95.2565 C49.2235,98.7145 46.4125,101.5265 42.9555,101.5265 C39.4995,101.5265 36.6865,98.7145 36.6865,95.2565 M34.1615,95.2595 C34.1615,100.1135 38.0995,104.0505 42.9545,104.0505 C47.8105,104.0505 51.7485,100.1135 51.7485,95.2595 C51.7485,90.4025 47.8105,86.4635 42.9545,86.4635 C38.0995,86.4635 34.1615,90.4015 34.1615,95.2595" id="Fill-94" fill="#FFFFFF"></path>
                <path d="M59.0098,78.3317 L74.5278,75.7417 C77.0618,75.3187 79.3248,77.6657 79.3248,80.7187 L79.3248,83.8497 C79.3248,86.6237 77.4388,88.8737 75.1118,88.8737 L59.5938,88.8737 C57.2668,88.8737 55.3808,86.6237 55.3808,83.8497 L55.3808,83.3087 C55.3808,80.8027 56.9288,78.6797 59.0098,78.3317" id="Fill-96" fill="#FFFFFF"></path>
                <polygon id="Fill-98" fill="#FFFFFF" points="58.3472 30.5544 108.2152 79.9994 105.8622 81.8784 56.0702 32.5064"></polygon>
                <path d="M58.3472,33.5036 L50.2332,33.5036 C49.4182,33.5036 48.7582,32.8426 48.7582,32.0286 C48.7582,31.2146 49.4202,30.5546 50.2332,30.5546 L58.3472,30.5546 L58.3472,33.5036 Z" id="Fill-100" fill="#FFFFFF"></path>
                <path d="M48.4424,41.8376 C47.8664,41.2596 47.8664,40.3256 48.4424,39.7496 L53.6434,33.8976 L56.8134,33.8976 L57.2144,34.3126 L50.5284,41.8376 C49.9514,42.4126 49.0184,42.4126 48.4424,41.8376" id="Fill-102" fill="#FFFFFF"></path>
                <path d="M34.6255,88.7419 C34.6255,88.7419 26.6285,92.0929 26.4695,96.2849 C26.3115,100.4779 33.4785,100.7099 33.4785,100.7099 C33.4785,100.7099 31.5425,97.9359 31.8595,94.4329 C32.1765,90.9299 34.6255,88.7419 34.6255,88.7419" id="Fill-104" fill="#FFFFFF"></path>
            </g>
        </g>
    </g>
</svg>