<?xml version="1.0" encoding="UTF-8"?>
<svg width="104px" height="77px" viewBox="0 0 104 77" version="1.1" xmlns="http://www.w3.org/2000/svg" xmlns:xlink="http://www.w3.org/1999/xlink">
    <!-- Generator: Sketch 43.2 (39069) - http://www.bohemiancoding.com/sketch -->
    <title>SVG/ZeroEmissions@2x</title>
    <desc>Created with Sketch.</desc>
    <defs></defs>
    <g id="Symbols" stroke="none" stroke-width="1" fill="none" fill-rule="evenodd">
        <g id="SVG/ZeroEmissions" transform="translate(-21.000000, -28.000000)" fill="#FFFFFF">
            <g>
                <path d="M74.9063,55.0837 C71.6663,48.2137 64.6763,43.4587 56.5913,43.4587 C45.4013,43.4587 36.2963,52.5637 36.2963,63.7387 C36.2963,70.6687 39.7913,76.7887 45.1013,80.4487 C46.4813,81.4087 47.9963,82.2037 49.5863,82.7887 C50.0213,81.1537 50.7713,79.6237 51.7613,78.2887 C50.1563,77.7487 48.6563,76.9537 47.3363,75.9337 C43.6613,73.1437 41.2763,68.7187 41.2763,63.7387 C41.2763,55.2937 48.1463,48.4237 56.5913,48.4237 C61.9913,48.4237 66.7613,51.2437 69.4763,55.4737 C70.3913,56.8837 71.0813,58.4587 71.4863,60.1537 C72.1313,60.0337 72.7913,59.9887 73.4663,59.9887 C74.5163,59.9887 75.5663,60.1087 76.5713,60.3487 C76.2713,58.4887 75.7013,56.7337 74.9063,55.0837" id="Fill-54"></path>
                <path d="M74.9063,55.0837 C74.4263,55.0387 73.9463,55.0237 73.4663,55.0237 C72.1013,55.0237 70.7663,55.1737 69.4763,55.4737 C70.3913,56.8837 71.0813,58.4587 71.4863,60.1537 C72.1313,60.0337 72.7913,59.9887 73.4663,59.9887 C74.5163,59.9887 75.5663,60.1087 76.5713,60.3487 C76.2713,58.4887 75.7013,56.7337 74.9063,55.0837 M47.3363,75.9337 C46.3913,77.3287 45.6263,78.8437 45.1013,80.4487 C46.4813,81.4087 47.9963,82.2037 49.5863,82.7887 C50.0213,81.1537 50.7713,79.6237 51.7613,78.2887 C50.1563,77.7487 48.6563,76.9537 47.3363,75.9337" id="Fill-56"></path>
                <path d="M71.4864,60.154 C65.7714,61.008 61.1514,65.584 60.3714,71.433 L60.1464,73.024 L58.6014,73.489 C55.8114,74.314 53.4414,76.039 51.7614,78.289 C50.1564,77.749 48.6564,76.954 47.3364,75.933 C49.3614,72.964 52.2714,70.579 55.7214,69.229 C57.2514,62.343 62.7114,57.004 69.4764,55.473 C70.3914,56.883 71.0814,58.459 71.4864,60.154" id="Fill-58"></path>
                <path d="M124.9615,86.1638 C124.9615,96.2138 116.8015,104.3738 106.7515,104.3738 C102.6865,104.3738 98.8315,103.0538 95.6665,100.6088 C92.4865,103.0538 88.6315,104.3738 84.5665,104.3738 C80.5015,104.3738 76.6315,103.0538 73.4665,100.6088 C70.3015,103.0538 66.4315,104.3738 62.3665,104.3738 C52.3315,104.3738 44.1565,96.2138 44.1565,86.1638 C44.1565,84.1838 44.4865,82.2638 45.1015,80.4488 C46.4815,81.4088 47.9965,82.2038 49.5865,82.7888 C49.2865,83.8688 49.1365,85.0088 49.1365,86.1638 C49.1365,93.4688 55.0615,99.4088 62.3665,99.4088 C65.8915,99.4088 69.2065,98.0288 71.7115,95.5388 L73.4665,93.7988 L75.2215,95.5388 C77.7115,98.0288 81.0415,99.4088 84.5665,99.4088 C88.0915,99.4088 91.4065,98.0288 93.9115,95.5388 L95.6665,93.7988 L97.4065,95.5388 C99.9115,98.0288 103.2265,99.4088 106.7515,99.4088 C114.0565,99.4088 119.9965,93.4688 119.9965,86.1638 C119.9965,80.3588 116.0965,75.1388 110.5165,73.4888 L108.9715,73.0238 L108.7615,71.4338 C107.8765,64.9088 102.2365,59.9888 95.6515,59.9888 C92.1265,59.9888 88.8115,61.3538 86.3215,63.8438 L84.5665,65.5988 L82.8115,63.8438 C81.0565,62.1038 78.9115,60.9038 76.5715,60.3488 C76.2715,58.4888 75.7015,56.7338 74.9065,55.0838 C78.4315,55.3538 81.7615,56.6288 84.5665,58.7888 C87.7315,56.3438 91.5865,55.0238 95.6515,55.0238 C104.2015,55.0238 111.5665,61.0238 113.4115,69.2288 C120.2815,71.9288 124.9615,78.6938 124.9615,86.1638" id="Fill-60"></path>
                <path d="M56.1246,41.9538 C54.7516,41.9538 53.6396,40.8408 53.6396,39.4688 L53.6396,31.1458 C53.6396,29.7728 54.7516,28.6608 56.1246,28.6608 C57.4976,28.6608 58.6096,29.7728 58.6096,31.1458 L58.6096,39.4688 C58.6096,40.8408 57.4976,41.9538 56.1246,41.9538" id="Fill-62"></path>
                <path d="M32.0796,64.611 L23.7566,64.611 C22.3836,64.611 21.2716,63.499 21.2716,62.126 C21.2716,60.754 22.3836,59.64 23.7566,59.64 L32.0796,59.64 C33.4526,59.64 34.5646,60.754 34.5646,62.126 C34.5646,63.499 33.4526,64.611 32.0796,64.611" id="Fill-64"></path>
                <path d="M39.1836,46.7458 C38.5476,46.7458 37.9116,46.5038 37.4266,46.0168 L31.5416,40.1328 C30.5706,39.1618 30.5706,37.5888 31.5416,36.6188 C32.5116,35.6468 34.0856,35.6468 35.0556,36.6188 L40.9406,42.5038 C41.9116,43.4748 41.9116,45.0478 40.9406,46.0168 C40.4556,46.5038 39.8196,46.7458 39.1836,46.7458" id="Fill-66"></path>
                <path d="M73.1333,46.7458 C72.4973,46.7458 71.8613,46.5038 71.3753,46.0168 C70.4053,45.0478 70.4053,43.4738 71.3763,42.5028 L77.2623,36.6178 C78.2323,35.6478 79.8063,35.6488 80.7773,36.6188 C81.7473,37.5888 81.7473,39.1628 80.7763,40.1338 L74.8903,46.0178 C74.4053,46.5038 73.7693,46.7458 73.1333,46.7458" id="Fill-68"></path>
                <path d="M30.9864,88.361 C30.3494,88.361 29.7144,88.119 29.2284,87.633 C28.2574,86.663 28.2574,85.089 29.2294,84.118 L35.1144,78.233 C36.0854,77.263 37.6594,77.264 38.6304,78.234 C39.6004,79.205 39.6004,80.778 38.6294,81.749 L32.7434,87.633 C32.2584,88.119 31.6224,88.361 30.9864,88.361" id="Fill-70"></path>
            </g>
        </g>
    </g>
</svg>